<mxfile host="app.diagrams.net" modified="2023-11-14T09:03:20.732Z" agent="Mozilla/5.0 (Windows NT 10.0; Win64; x64) AppleWebKit/537.36 (KHTML, like Gecko) Chrome/119.0.0.0 Safari/537.36" etag="HQ9rtbpq2x5adVbhaRCX" version="22.1.0" type="github">
  <diagram name="Page-1" id="T_trgYmUdFwbFkKvSS2j">
    <mxGraphModel dx="683" dy="351" grid="1" gridSize="1" guides="1" tooltips="1" connect="1" arrows="1" fold="1" page="1" pageScale="1" pageWidth="1100" pageHeight="850" math="0" shadow="0">
      <root>
        <mxCell id="0" />
        <mxCell id="1" parent="0" />
        <mxCell id="fTM0DNvJYfySXZwp9rKw-4" value="" style="group;movable=1;resizable=1;rotatable=1;deletable=1;editable=1;locked=0;connectable=1;rounded=0;" parent="1" vertex="1" connectable="0">
          <mxGeometry x="502" y="200" width="120" height="80" as="geometry" />
        </mxCell>
        <mxCell id="fTM0DNvJYfySXZwp9rKw-5" value="" style="rounded=0;whiteSpace=wrap;html=1;points=[[0,0.25,0,0,0],[0,0.5,0,0,0],[0,0.75,0,0,0],[0.25,0,0,0,0],[0.25,1,0,0,0],[0.5,0,0,0,0],[0.5,1,0,0,0],[0.75,0,0,0,0],[0.75,1,0,0,0],[1,0,0,0,0],[1,0.25,0,0,0],[1,0.5,0,0,0],[1,0.75,0,0,0],[1,1,0,0,0]];movable=1;resizable=1;rotatable=1;deletable=1;editable=1;locked=0;connectable=1;" parent="fTM0DNvJYfySXZwp9rKw-4" vertex="1">
          <mxGeometry width="120" height="80" as="geometry" />
        </mxCell>
        <mxCell id="fTM0DNvJYfySXZwp9rKw-6" value="&lt;font style=&quot;font-size: 8px;&quot;&gt;fifo_din[23:0]&lt;/font&gt;" style="text;html=1;strokeColor=none;fillColor=none;align=left;verticalAlign=middle;whiteSpace=wrap;rounded=0;strokeWidth=0;fontSize=8;horizontal=1;movable=1;resizable=1;rotatable=1;deletable=1;editable=1;locked=0;connectable=1;" parent="fTM0DNvJYfySXZwp9rKw-4" vertex="1">
          <mxGeometry y="30" width="60" height="10" as="geometry" />
        </mxCell>
        <mxCell id="fTM0DNvJYfySXZwp9rKw-7" value="&lt;font style=&quot;font-size: 8px;&quot;&gt;write_en&lt;/font&gt;" style="text;html=1;strokeColor=none;fillColor=none;align=left;verticalAlign=middle;whiteSpace=wrap;rounded=0;strokeWidth=0;fontSize=8;horizontal=1;movable=1;resizable=1;rotatable=1;deletable=1;editable=1;locked=0;connectable=1;" parent="fTM0DNvJYfySXZwp9rKw-4" vertex="1">
          <mxGeometry y="40" width="60" height="10" as="geometry" />
        </mxCell>
        <mxCell id="fTM0DNvJYfySXZwp9rKw-8" value="&lt;font style=&quot;font-size: 8px;&quot;&gt;fifo_dout[32:0]&lt;/font&gt;" style="text;html=1;strokeColor=none;fillColor=none;align=right;verticalAlign=middle;whiteSpace=wrap;rounded=0;strokeWidth=0;fontSize=8;horizontal=1;movable=1;resizable=1;rotatable=1;deletable=1;editable=1;locked=0;connectable=1;" parent="fTM0DNvJYfySXZwp9rKw-4" vertex="1">
          <mxGeometry x="60" y="30" width="60" height="10" as="geometry" />
        </mxCell>
        <mxCell id="fTM0DNvJYfySXZwp9rKw-9" value="&lt;font style=&quot;font-size: 8px;&quot;&gt;full&lt;/font&gt;" style="text;html=1;strokeColor=none;fillColor=none;align=right;verticalAlign=middle;whiteSpace=wrap;rounded=0;strokeWidth=0;fontSize=8;horizontal=1;movable=1;resizable=1;rotatable=1;deletable=1;editable=1;locked=0;connectable=1;" parent="fTM0DNvJYfySXZwp9rKw-4" vertex="1">
          <mxGeometry x="60" width="60" height="10" as="geometry" />
        </mxCell>
        <mxCell id="fTM0DNvJYfySXZwp9rKw-10" value="&lt;font style=&quot;font-size: 8px;&quot;&gt;empty&lt;/font&gt;" style="text;html=1;strokeColor=none;fillColor=none;align=right;verticalAlign=middle;whiteSpace=wrap;rounded=0;strokeWidth=0;fontSize=8;horizontal=1;movable=1;resizable=1;rotatable=1;deletable=1;editable=1;locked=0;connectable=1;" parent="fTM0DNvJYfySXZwp9rKw-4" vertex="1">
          <mxGeometry x="60" y="10" width="60" height="10" as="geometry" />
        </mxCell>
        <mxCell id="fTM0DNvJYfySXZwp9rKw-11" value="&lt;font style=&quot;font-size: 8px;&quot;&gt;read_en&lt;/font&gt;" style="text;html=1;strokeColor=none;fillColor=none;align=right;verticalAlign=middle;whiteSpace=wrap;rounded=0;strokeWidth=0;fontSize=8;horizontal=1;movable=1;resizable=1;rotatable=1;deletable=1;editable=1;locked=0;connectable=1;" parent="fTM0DNvJYfySXZwp9rKw-4" vertex="1">
          <mxGeometry x="60" y="40" width="60" height="10" as="geometry" />
        </mxCell>
        <mxCell id="fTM0DNvJYfySXZwp9rKw-12" value="fifo_clock" style="text;html=1;strokeColor=none;fillColor=none;align=left;verticalAlign=middle;whiteSpace=wrap;rounded=0;strokeWidth=0;fontSize=8;horizontal=1;movable=1;resizable=1;rotatable=1;deletable=1;editable=1;locked=0;connectable=1;" parent="fTM0DNvJYfySXZwp9rKw-4" vertex="1">
          <mxGeometry y="10" width="60" height="10" as="geometry" />
        </mxCell>
        <mxCell id="fTM0DNvJYfySXZwp9rKw-13" value="fifo_rst_n" style="text;html=1;strokeColor=none;fillColor=none;align=left;verticalAlign=middle;whiteSpace=wrap;rounded=0;strokeWidth=0;fontSize=8;horizontal=1;movable=1;resizable=1;rotatable=1;deletable=1;editable=1;locked=0;connectable=1;" parent="fTM0DNvJYfySXZwp9rKw-4" vertex="1">
          <mxGeometry width="60" height="10" as="geometry" />
        </mxCell>
        <mxCell id="fTM0DNvJYfySXZwp9rKw-14" value="&lt;font color=&quot;#ff0000&quot;&gt;stream_fifo_0&lt;/font&gt;" style="text;html=1;strokeColor=none;fillColor=none;align=center;verticalAlign=middle;whiteSpace=wrap;rounded=0;fontSize=8;movable=1;resizable=1;rotatable=1;deletable=1;editable=1;locked=0;connectable=1;" parent="fTM0DNvJYfySXZwp9rKw-4" vertex="1">
          <mxGeometry x="30" y="70" width="60" height="10" as="geometry" />
        </mxCell>
        <mxCell id="fTM0DNvJYfySXZwp9rKw-15" value="" style="group;movable=1;resizable=1;rotatable=1;deletable=1;editable=1;locked=0;connectable=1;rounded=0;" parent="1" vertex="1" connectable="0">
          <mxGeometry x="502" y="440" width="120" height="80" as="geometry" />
        </mxCell>
        <mxCell id="fTM0DNvJYfySXZwp9rKw-16" value="" style="rounded=0;whiteSpace=wrap;html=1;movable=1;resizable=1;rotatable=1;deletable=1;editable=1;locked=0;connectable=1;" parent="fTM0DNvJYfySXZwp9rKw-15" vertex="1">
          <mxGeometry width="120" height="80" as="geometry" />
        </mxCell>
        <mxCell id="fTM0DNvJYfySXZwp9rKw-17" value="&lt;font style=&quot;font-size: 8px;&quot;&gt;stream_tuser&lt;/font&gt;" style="text;html=1;strokeColor=none;fillColor=none;align=left;verticalAlign=middle;whiteSpace=wrap;rounded=0;strokeWidth=0;fontSize=8;horizontal=1;movable=1;resizable=1;rotatable=1;deletable=1;editable=1;locked=0;connectable=1;" parent="fTM0DNvJYfySXZwp9rKw-15" vertex="1">
          <mxGeometry y="30" width="60" height="10" as="geometry" />
        </mxCell>
        <mxCell id="fTM0DNvJYfySXZwp9rKw-18" value="clock" style="text;html=1;strokeColor=none;fillColor=none;align=left;verticalAlign=middle;whiteSpace=wrap;rounded=0;strokeWidth=0;fontSize=8;horizontal=1;movable=1;resizable=1;rotatable=1;deletable=1;editable=1;locked=0;connectable=1;" parent="fTM0DNvJYfySXZwp9rKw-15" vertex="1">
          <mxGeometry y="10" width="60" height="10" as="geometry" />
        </mxCell>
        <mxCell id="fTM0DNvJYfySXZwp9rKw-19" value="rst_n" style="text;html=1;strokeColor=none;fillColor=none;align=left;verticalAlign=middle;whiteSpace=wrap;rounded=0;strokeWidth=0;fontSize=8;horizontal=1;movable=1;resizable=1;rotatable=1;deletable=1;editable=1;locked=0;connectable=1;" parent="fTM0DNvJYfySXZwp9rKw-15" vertex="1">
          <mxGeometry width="60" height="10" as="geometry" />
        </mxCell>
        <mxCell id="fTM0DNvJYfySXZwp9rKw-20" value="&lt;font style=&quot;font-size: 8px;&quot;&gt;addr_trigger[1:0]&lt;/font&gt;" style="text;html=1;strokeColor=none;fillColor=none;align=right;verticalAlign=middle;whiteSpace=wrap;rounded=0;strokeWidth=0;fontSize=8;horizontal=1;movable=1;resizable=1;rotatable=1;deletable=1;editable=1;locked=0;connectable=1;" parent="fTM0DNvJYfySXZwp9rKw-15" vertex="1">
          <mxGeometry x="60" y="40" width="60" height="10" as="geometry" />
        </mxCell>
        <mxCell id="fTM0DNvJYfySXZwp9rKw-21" value="rd_start" style="text;html=1;strokeColor=none;fillColor=none;align=right;verticalAlign=middle;whiteSpace=wrap;rounded=0;strokeWidth=0;fontSize=8;horizontal=1;movable=1;resizable=1;rotatable=1;deletable=1;editable=1;locked=0;connectable=1;" parent="fTM0DNvJYfySXZwp9rKw-15" vertex="1">
          <mxGeometry x="60" y="30" width="60" height="10" as="geometry" />
        </mxCell>
        <mxCell id="fTM0DNvJYfySXZwp9rKw-22" value="addr[31:0]" style="text;html=1;strokeColor=none;fillColor=none;align=right;verticalAlign=middle;whiteSpace=wrap;rounded=0;strokeWidth=0;fontSize=8;horizontal=1;movable=1;resizable=1;rotatable=1;deletable=1;editable=1;locked=0;connectable=1;" parent="fTM0DNvJYfySXZwp9rKw-15" vertex="1">
          <mxGeometry x="60" y="20" width="60" height="10" as="geometry" />
        </mxCell>
        <mxCell id="fTM0DNvJYfySXZwp9rKw-23" value="&lt;font color=&quot;#ff0000&quot;&gt;addr_jumper&lt;/font&gt;" style="text;html=1;strokeColor=none;fillColor=none;align=center;verticalAlign=middle;whiteSpace=wrap;rounded=0;fontSize=8;movable=1;resizable=1;rotatable=1;deletable=1;editable=1;locked=0;connectable=1;" parent="fTM0DNvJYfySXZwp9rKw-15" vertex="1">
          <mxGeometry x="30" y="70" width="60" height="10" as="geometry" />
        </mxCell>
        <mxCell id="fTM0DNvJYfySXZwp9rKw-24" value="" style="group;movable=1;resizable=1;rotatable=1;deletable=1;editable=1;locked=0;connectable=1;rounded=0;" parent="1" vertex="1" connectable="0">
          <mxGeometry x="502" y="320" width="120" height="80" as="geometry" />
        </mxCell>
        <mxCell id="fTM0DNvJYfySXZwp9rKw-25" value="" style="rounded=0;whiteSpace=wrap;html=1;points=[[0,0.25,0,0,0],[0,0.5,0,0,0],[0,0.75,0,0,0],[0.25,0,0,0,0],[0.25,1,0,0,0],[0.5,0,0,0,0],[0.5,1,0,0,0],[0.75,0,0,0,0],[0.75,1,0,0,0],[1,0,0,0,0],[1,0.25,0,0,0],[1,0.5,0,0,0],[1,0.75,0,0,0],[1,1,0,0,0]];movable=1;resizable=1;rotatable=1;deletable=1;editable=1;locked=0;connectable=1;" parent="fTM0DNvJYfySXZwp9rKw-24" vertex="1">
          <mxGeometry width="120" height="80" as="geometry" />
        </mxCell>
        <mxCell id="fTM0DNvJYfySXZwp9rKw-26" value="&lt;font style=&quot;font-size: 8px;&quot;&gt;fifo_din[23:0]&lt;/font&gt;" style="text;html=1;strokeColor=none;fillColor=none;align=left;verticalAlign=middle;whiteSpace=wrap;rounded=0;strokeWidth=0;fontSize=8;horizontal=1;movable=1;resizable=1;rotatable=1;deletable=1;editable=1;locked=0;connectable=1;" parent="fTM0DNvJYfySXZwp9rKw-24" vertex="1">
          <mxGeometry y="30" width="60" height="10" as="geometry" />
        </mxCell>
        <mxCell id="fTM0DNvJYfySXZwp9rKw-27" value="&lt;font style=&quot;font-size: 8px;&quot;&gt;write_en&lt;/font&gt;" style="text;html=1;strokeColor=none;fillColor=none;align=left;verticalAlign=middle;whiteSpace=wrap;rounded=0;strokeWidth=0;fontSize=8;horizontal=1;movable=1;resizable=1;rotatable=1;deletable=1;editable=1;locked=0;connectable=1;" parent="fTM0DNvJYfySXZwp9rKw-24" vertex="1">
          <mxGeometry y="40" width="60" height="10" as="geometry" />
        </mxCell>
        <mxCell id="fTM0DNvJYfySXZwp9rKw-28" value="&lt;font style=&quot;font-size: 8px;&quot;&gt;fifo_dout[32:0]&lt;/font&gt;" style="text;html=1;strokeColor=none;fillColor=none;align=right;verticalAlign=middle;whiteSpace=wrap;rounded=0;strokeWidth=0;fontSize=8;horizontal=1;movable=1;resizable=1;rotatable=1;deletable=1;editable=1;locked=0;connectable=1;" parent="fTM0DNvJYfySXZwp9rKw-24" vertex="1">
          <mxGeometry x="60" y="30" width="60" height="10" as="geometry" />
        </mxCell>
        <mxCell id="fTM0DNvJYfySXZwp9rKw-29" value="&lt;font style=&quot;font-size: 8px;&quot;&gt;full&lt;/font&gt;" style="text;html=1;strokeColor=none;fillColor=none;align=right;verticalAlign=middle;whiteSpace=wrap;rounded=0;strokeWidth=0;fontSize=8;horizontal=1;movable=1;resizable=1;rotatable=1;deletable=1;editable=1;locked=0;connectable=1;" parent="fTM0DNvJYfySXZwp9rKw-24" vertex="1">
          <mxGeometry x="60" width="60" height="10" as="geometry" />
        </mxCell>
        <mxCell id="fTM0DNvJYfySXZwp9rKw-30" value="&lt;font style=&quot;font-size: 8px;&quot;&gt;empty&lt;/font&gt;" style="text;html=1;strokeColor=none;fillColor=none;align=right;verticalAlign=middle;whiteSpace=wrap;rounded=0;strokeWidth=0;fontSize=8;horizontal=1;movable=1;resizable=1;rotatable=1;deletable=1;editable=1;locked=0;connectable=1;" parent="fTM0DNvJYfySXZwp9rKw-24" vertex="1">
          <mxGeometry x="60" y="10" width="60" height="10" as="geometry" />
        </mxCell>
        <mxCell id="fTM0DNvJYfySXZwp9rKw-31" value="&lt;font style=&quot;font-size: 8px;&quot;&gt;read_en&lt;/font&gt;" style="text;html=1;strokeColor=none;fillColor=none;align=right;verticalAlign=middle;whiteSpace=wrap;rounded=0;strokeWidth=0;fontSize=8;horizontal=1;movable=1;resizable=1;rotatable=1;deletable=1;editable=1;locked=0;connectable=1;" parent="fTM0DNvJYfySXZwp9rKw-24" vertex="1">
          <mxGeometry x="60" y="40" width="60" height="10" as="geometry" />
        </mxCell>
        <mxCell id="fTM0DNvJYfySXZwp9rKw-32" value="fifo_clock" style="text;html=1;strokeColor=none;fillColor=none;align=left;verticalAlign=middle;whiteSpace=wrap;rounded=0;strokeWidth=0;fontSize=8;horizontal=1;movable=1;resizable=1;rotatable=1;deletable=1;editable=1;locked=0;connectable=1;" parent="fTM0DNvJYfySXZwp9rKw-24" vertex="1">
          <mxGeometry y="10" width="60" height="10" as="geometry" />
        </mxCell>
        <mxCell id="fTM0DNvJYfySXZwp9rKw-33" value="fifo_rst_n" style="text;html=1;strokeColor=none;fillColor=none;align=left;verticalAlign=middle;whiteSpace=wrap;rounded=0;strokeWidth=0;fontSize=8;horizontal=1;movable=1;resizable=1;rotatable=1;deletable=1;editable=1;locked=0;connectable=1;" parent="fTM0DNvJYfySXZwp9rKw-24" vertex="1">
          <mxGeometry width="60" height="10" as="geometry" />
        </mxCell>
        <mxCell id="fTM0DNvJYfySXZwp9rKw-34" value="&lt;font color=&quot;#ff0000&quot;&gt;stream_fifo_1&lt;/font&gt;" style="text;html=1;strokeColor=none;fillColor=none;align=center;verticalAlign=middle;whiteSpace=wrap;rounded=0;fontSize=8;movable=1;resizable=1;rotatable=1;deletable=1;editable=1;locked=0;connectable=1;" parent="fTM0DNvJYfySXZwp9rKw-24" vertex="1">
          <mxGeometry x="30" y="70" width="60" height="10" as="geometry" />
        </mxCell>
        <mxCell id="fTM0DNvJYfySXZwp9rKw-48" value="" style="group;movable=1;resizable=1;rotatable=1;deletable=1;editable=1;locked=0;connectable=1;rounded=0;" parent="1" vertex="1" connectable="0">
          <mxGeometry x="262" y="320" width="120" height="80" as="geometry" />
        </mxCell>
        <mxCell id="fTM0DNvJYfySXZwp9rKw-49" value="" style="rounded=0;whiteSpace=wrap;html=1;movable=1;resizable=1;rotatable=1;deletable=1;editable=1;locked=0;connectable=1;container=0;" parent="fTM0DNvJYfySXZwp9rKw-48" vertex="1">
          <mxGeometry width="120" height="80" as="geometry" />
        </mxCell>
        <mxCell id="fTM0DNvJYfySXZwp9rKw-50" value="&lt;font style=&quot;font-size: 8px;&quot;&gt;video_rst_n&lt;/font&gt;" style="text;html=1;strokeColor=none;fillColor=none;align=left;verticalAlign=middle;whiteSpace=wrap;rounded=0;strokeWidth=0;fontSize=8;horizontal=1;movable=1;resizable=1;rotatable=1;deletable=1;editable=1;locked=0;connectable=1;container=0;" parent="fTM0DNvJYfySXZwp9rKw-48" vertex="1">
          <mxGeometry y="30" width="60" height="10" as="geometry" />
        </mxCell>
        <mxCell id="fTM0DNvJYfySXZwp9rKw-51" value="M_AXI_stream" style="text;html=1;strokeColor=none;fillColor=none;align=right;verticalAlign=middle;whiteSpace=wrap;rounded=0;strokeWidth=0;fontSize=8;horizontal=1;movable=1;resizable=1;rotatable=1;deletable=1;editable=1;locked=0;connectable=1;container=0;" parent="fTM0DNvJYfySXZwp9rKw-48" vertex="1">
          <mxGeometry x="60" y="30" width="60" height="10" as="geometry" />
        </mxCell>
        <mxCell id="fTM0DNvJYfySXZwp9rKw-52" value="&lt;font color=&quot;#ff0000&quot;&gt;RX_subsystem&lt;/font&gt;" style="text;html=1;strokeColor=none;fillColor=none;align=center;verticalAlign=middle;whiteSpace=wrap;rounded=0;fontSize=8;movable=1;resizable=1;rotatable=1;deletable=1;editable=1;locked=0;connectable=1;container=0;" parent="fTM0DNvJYfySXZwp9rKw-48" vertex="1">
          <mxGeometry x="30" y="70" width="60" height="10" as="geometry" />
        </mxCell>
        <mxCell id="fTM0DNvJYfySXZwp9rKw-53" value="&lt;font style=&quot;font-size: 8px;&quot;&gt;video_clock&lt;/font&gt;" style="text;html=1;strokeColor=none;fillColor=none;align=left;verticalAlign=middle;whiteSpace=wrap;rounded=0;strokeWidth=0;fontSize=8;horizontal=1;movable=1;resizable=1;rotatable=1;deletable=1;editable=1;locked=0;connectable=1;container=0;" parent="fTM0DNvJYfySXZwp9rKw-48" vertex="1">
          <mxGeometry y="40" width="60" height="10" as="geometry" />
        </mxCell>
        <mxCell id="fTM0DNvJYfySXZwp9rKw-59" value="" style="endArrow=blockThin;html=1;rounded=0;endFill=1;movable=1;resizable=1;rotatable=1;deletable=1;editable=1;locked=0;connectable=1;jumpStyle=none;" parent="1" edge="1">
          <mxGeometry width="50" height="50" relative="1" as="geometry">
            <mxPoint x="231" y="207" as="sourcePoint" />
            <mxPoint x="262" y="207" as="targetPoint" />
          </mxGeometry>
        </mxCell>
        <mxCell id="fTM0DNvJYfySXZwp9rKw-60" value="" style="endArrow=blockThin;html=1;rounded=0;endFill=1;movable=1;resizable=1;rotatable=1;deletable=1;editable=1;locked=0;connectable=1;jumpStyle=none;" parent="1" edge="1">
          <mxGeometry width="50" height="50" relative="1" as="geometry">
            <mxPoint x="222" y="217" as="sourcePoint" />
            <mxPoint x="262" y="217" as="targetPoint" />
          </mxGeometry>
        </mxCell>
        <mxCell id="fTM0DNvJYfySXZwp9rKw-61" value="" style="endArrow=blockThin;html=1;rounded=0;endFill=1;movable=1;resizable=1;rotatable=1;deletable=1;editable=1;locked=0;connectable=1;jumpStyle=none;" parent="1" edge="1">
          <mxGeometry width="50" height="50" relative="1" as="geometry">
            <mxPoint x="162" y="237" as="sourcePoint" />
            <mxPoint x="262" y="237" as="targetPoint" />
          </mxGeometry>
        </mxCell>
        <mxCell id="fTM0DNvJYfySXZwp9rKw-62" value="" style="endArrow=blockThin;html=1;rounded=0;endFill=1;movable=1;resizable=1;rotatable=1;deletable=1;editable=1;locked=0;connectable=1;jumpStyle=none;" parent="1" source="fTM0DNvJYfySXZwp9rKw-103" edge="1">
          <mxGeometry width="50" height="50" relative="1" as="geometry">
            <mxPoint x="162" y="247" as="sourcePoint" />
            <mxPoint x="262" y="247" as="targetPoint" />
          </mxGeometry>
        </mxCell>
        <mxCell id="fTM0DNvJYfySXZwp9rKw-63" value="" style="endArrow=none;html=1;rounded=0;startArrow=none;startFill=0;movable=1;resizable=1;rotatable=1;deletable=1;editable=1;locked=0;connectable=1;jumpStyle=none;" parent="1" edge="1">
          <mxGeometry width="50" height="50" relative="1" as="geometry">
            <mxPoint x="231" y="207" as="sourcePoint" />
            <mxPoint x="231" y="355" as="targetPoint" />
          </mxGeometry>
        </mxCell>
        <mxCell id="fTM0DNvJYfySXZwp9rKw-64" value="" style="endArrow=none;html=1;rounded=0;startArrow=none;startFill=0;movable=1;resizable=1;rotatable=1;deletable=1;editable=1;locked=0;connectable=1;jumpStyle=none;" parent="1" edge="1">
          <mxGeometry width="50" height="50" relative="1" as="geometry">
            <mxPoint x="222" y="217" as="sourcePoint" />
            <mxPoint x="222" y="367" as="targetPoint" />
          </mxGeometry>
        </mxCell>
        <mxCell id="fTM0DNvJYfySXZwp9rKw-65" value="" style="endArrow=blockThin;html=1;rounded=0;endFill=1;movable=1;resizable=1;rotatable=1;deletable=1;editable=1;locked=0;connectable=1;entryX=0;entryY=0.5;entryDx=0;entryDy=0;jumpStyle=none;" parent="1" source="DFjxJVPFyk8L71EdaPLH-11" target="fTM0DNvJYfySXZwp9rKw-50" edge="1">
          <mxGeometry width="50" height="50" relative="1" as="geometry">
            <mxPoint x="162" y="355" as="sourcePoint" />
            <mxPoint x="262" y="355" as="targetPoint" />
          </mxGeometry>
        </mxCell>
        <mxCell id="fTM0DNvJYfySXZwp9rKw-66" value="" style="endArrow=blockThin;html=1;rounded=0;endFill=1;movable=1;resizable=1;rotatable=1;deletable=1;editable=1;locked=0;connectable=1;jumpStyle=none;" parent="1" source="DFjxJVPFyk8L71EdaPLH-13" edge="1">
          <mxGeometry width="50" height="50" relative="1" as="geometry">
            <mxPoint x="162" y="367" as="sourcePoint" />
            <mxPoint x="262" y="367" as="targetPoint" />
          </mxGeometry>
        </mxCell>
        <mxCell id="fTM0DNvJYfySXZwp9rKw-67" value="Video_rst_n" style="text;html=1;strokeColor=none;fillColor=none;align=left;verticalAlign=middle;whiteSpace=wrap;rounded=0;strokeWidth=0;fontSize=8;horizontal=1;movable=1;resizable=1;rotatable=1;deletable=1;editable=1;locked=0;connectable=1;container=0;" parent="1" vertex="1">
          <mxGeometry x="161" y="344" width="60" height="10" as="geometry" />
        </mxCell>
        <mxCell id="fTM0DNvJYfySXZwp9rKw-68" value="Video_clock" style="text;html=1;strokeColor=none;fillColor=none;align=left;verticalAlign=middle;whiteSpace=wrap;rounded=0;strokeWidth=0;fontSize=8;horizontal=1;movable=1;resizable=1;rotatable=1;deletable=1;editable=1;locked=0;connectable=1;container=0;" parent="1" vertex="1">
          <mxGeometry x="161" y="356" width="60" height="10" as="geometry" />
        </mxCell>
        <mxCell id="fTM0DNvJYfySXZwp9rKw-69" value="AXI_rst_n" style="text;html=1;strokeColor=none;fillColor=none;align=left;verticalAlign=middle;whiteSpace=wrap;rounded=0;strokeWidth=0;fontSize=8;horizontal=1;movable=1;resizable=1;rotatable=1;deletable=1;editable=1;locked=0;connectable=1;container=0;" parent="1" vertex="1">
          <mxGeometry x="160" y="227" width="60" height="10" as="geometry" />
        </mxCell>
        <mxCell id="fTM0DNvJYfySXZwp9rKw-70" value="AXI_clock" style="text;html=1;strokeColor=none;fillColor=none;align=left;verticalAlign=middle;whiteSpace=wrap;rounded=0;strokeWidth=0;fontSize=8;horizontal=1;movable=1;resizable=1;rotatable=1;deletable=1;editable=1;locked=0;connectable=1;container=0;" parent="1" vertex="1">
          <mxGeometry x="160" y="237" width="60" height="10" as="geometry" />
        </mxCell>
        <mxCell id="fTM0DNvJYfySXZwp9rKw-79" value="" style="endArrow=none;html=1;rounded=0;endFill=0;movable=1;resizable=1;rotatable=1;deletable=1;editable=1;locked=0;connectable=1;jumpStyle=none;" parent="1" edge="1">
          <mxGeometry width="50" height="50" relative="1" as="geometry">
            <mxPoint x="502" y="336" as="sourcePoint" />
            <mxPoint x="482" y="336" as="targetPoint" />
          </mxGeometry>
        </mxCell>
        <mxCell id="fTM0DNvJYfySXZwp9rKw-80" value="" style="endArrow=none;html=1;rounded=0;endFill=0;movable=1;resizable=1;rotatable=1;deletable=1;editable=1;locked=0;connectable=1;jumpStyle=none;" parent="1" edge="1">
          <mxGeometry width="50" height="50" relative="1" as="geometry">
            <mxPoint x="502" y="326" as="sourcePoint" />
            <mxPoint x="492" y="326" as="targetPoint" />
          </mxGeometry>
        </mxCell>
        <mxCell id="fTM0DNvJYfySXZwp9rKw-81" value="" style="endArrow=none;html=1;rounded=0;endFill=0;movable=1;resizable=1;rotatable=1;deletable=1;editable=1;locked=0;connectable=1;jumpStyle=none;" parent="1" edge="1">
          <mxGeometry width="50" height="50" relative="1" as="geometry">
            <mxPoint x="502" y="216" as="sourcePoint" />
            <mxPoint x="482" y="216" as="targetPoint" />
          </mxGeometry>
        </mxCell>
        <mxCell id="fTM0DNvJYfySXZwp9rKw-82" value="" style="endArrow=none;html=1;rounded=0;endFill=0;movable=1;resizable=1;rotatable=1;deletable=1;editable=1;locked=0;connectable=1;jumpStyle=none;" parent="1" edge="1">
          <mxGeometry width="50" height="50" relative="1" as="geometry">
            <mxPoint x="502" y="206" as="sourcePoint" />
            <mxPoint x="492" y="206" as="targetPoint" />
          </mxGeometry>
        </mxCell>
        <mxCell id="fTM0DNvJYfySXZwp9rKw-85" value="" style="endArrow=none;html=1;rounded=0;endFill=0;fillColor=#e1d5e7;strokeColor=#9673a6;startArrow=blockThin;startFill=1;movable=1;resizable=1;rotatable=1;deletable=1;editable=1;locked=0;connectable=1;jumpStyle=none;" parent="1" edge="1">
          <mxGeometry width="50" height="50" relative="1" as="geometry">
            <mxPoint x="502" y="236" as="sourcePoint" />
            <mxPoint x="462" y="236" as="targetPoint" />
          </mxGeometry>
        </mxCell>
        <mxCell id="fTM0DNvJYfySXZwp9rKw-99" value="" style="endArrow=none;html=1;rounded=0;endFill=0;fillColor=#60a917;strokeColor=#2D7600;movable=1;resizable=1;rotatable=1;deletable=1;editable=1;locked=0;connectable=1;jumpStyle=none;" parent="1" edge="1">
          <mxGeometry width="50" height="50" relative="1" as="geometry">
            <mxPoint x="632" y="205" as="sourcePoint" />
            <mxPoint x="622" y="205" as="targetPoint" />
          </mxGeometry>
        </mxCell>
        <mxCell id="fTM0DNvJYfySXZwp9rKw-101" value="" style="endArrow=none;html=1;rounded=0;endFill=0;fillColor=#60a917;strokeColor=#2D7600;startArrow=blockThin;startFill=1;movable=1;resizable=1;rotatable=1;deletable=1;editable=1;locked=0;connectable=1;jumpStyle=none;" parent="1" edge="1">
          <mxGeometry width="50" height="50" relative="1" as="geometry">
            <mxPoint x="502" y="246" as="sourcePoint" />
            <mxPoint x="472" y="246" as="targetPoint" />
          </mxGeometry>
        </mxCell>
        <mxCell id="fTM0DNvJYfySXZwp9rKw-105" value="" style="shape=waypoint;sketch=0;fillStyle=solid;size=6;pointerEvents=1;points=[];fillColor=none;resizable=1;rotatable=1;perimeter=centerPerimeter;snapToPoint=1;movable=1;deletable=1;editable=1;locked=0;connectable=1;" parent="1" vertex="1">
          <mxGeometry x="482" y="195" width="20" height="22" as="geometry" />
        </mxCell>
        <mxCell id="fTM0DNvJYfySXZwp9rKw-106" value="" style="shape=waypoint;sketch=0;fillStyle=solid;size=6;pointerEvents=1;points=[];fillColor=none;resizable=1;rotatable=1;perimeter=centerPerimeter;snapToPoint=1;movable=1;deletable=1;editable=1;locked=0;connectable=1;" parent="1" vertex="1">
          <mxGeometry x="472" y="206" width="20" height="20" as="geometry" />
        </mxCell>
        <mxCell id="rp5CnQPVf0M-Nyt8Gne1-17" style="edgeStyle=orthogonalEdgeStyle;rounded=0;orthogonalLoop=1;jettySize=auto;html=1;entryX=0;entryY=0.5;entryDx=0;entryDy=0;endArrow=none;endFill=0;movable=1;resizable=1;rotatable=1;deletable=1;editable=1;locked=0;connectable=1;jumpStyle=none;" parent="1" source="gBf5a1rEPs-FKC83FTHr-6" target="fTM0DNvJYfySXZwp9rKw-19" edge="1">
          <mxGeometry relative="1" as="geometry">
            <mxPoint x="494" y="437.09259259259255" as="targetPoint" />
            <Array as="points">
              <mxPoint x="492" y="445" />
            </Array>
          </mxGeometry>
        </mxCell>
        <mxCell id="fTM0DNvJYfySXZwp9rKw-107" value="" style="shape=waypoint;sketch=0;fillStyle=solid;size=6;pointerEvents=1;points=[];fillColor=none;resizable=1;rotatable=1;perimeter=centerPerimeter;snapToPoint=1;movable=1;deletable=1;editable=1;locked=0;connectable=1;" parent="1" vertex="1">
          <mxGeometry x="482" y="316" width="20" height="20" as="geometry" />
        </mxCell>
        <mxCell id="DFjxJVPFyk8L71EdaPLH-10" style="edgeStyle=orthogonalEdgeStyle;rounded=0;orthogonalLoop=1;jettySize=auto;html=1;endArrow=none;endFill=0;entryX=0;entryY=0.5;entryDx=0;entryDy=0;movable=1;resizable=1;rotatable=1;deletable=1;editable=1;locked=0;connectable=1;jumpStyle=none;" parent="1" source="gBf5a1rEPs-FKC83FTHr-9" target="fTM0DNvJYfySXZwp9rKw-18" edge="1">
          <mxGeometry relative="1" as="geometry">
            <mxPoint x="482" y="455" as="targetPoint" />
            <Array as="points">
              <mxPoint x="482" y="455" />
            </Array>
          </mxGeometry>
        </mxCell>
        <mxCell id="fTM0DNvJYfySXZwp9rKw-108" value="" style="shape=waypoint;sketch=0;fillStyle=solid;size=6;pointerEvents=1;points=[];fillColor=none;resizable=1;rotatable=1;perimeter=centerPerimeter;snapToPoint=1;movable=1;deletable=1;editable=1;locked=0;connectable=1;" parent="1" vertex="1">
          <mxGeometry x="472" y="326" width="20" height="20" as="geometry" />
        </mxCell>
        <mxCell id="rp5CnQPVf0M-Nyt8Gne1-4" style="edgeStyle=orthogonalEdgeStyle;rounded=0;orthogonalLoop=1;jettySize=auto;html=1;entryX=1;entryY=0.5;entryDx=0;entryDy=0;endArrow=none;endFill=0;fillColor=#008a00;strokeColor=#005700;movable=1;resizable=1;rotatable=1;deletable=1;editable=1;locked=0;connectable=1;jumpStyle=none;" parent="1" source="fTM0DNvJYfySXZwp9rKw-109" target="fTM0DNvJYfySXZwp9rKw-29" edge="1">
          <mxGeometry relative="1" as="geometry">
            <mxPoint x="632" y="327.4" as="targetPoint" />
            <Array as="points">
              <mxPoint x="632" y="325" />
            </Array>
          </mxGeometry>
        </mxCell>
        <mxCell id="rp5CnQPVf0M-Nyt8Gne1-5" style="edgeStyle=orthogonalEdgeStyle;rounded=0;orthogonalLoop=1;jettySize=auto;html=1;entryX=0.5;entryY=0;entryDx=0;entryDy=0;endArrow=none;endFill=0;fillColor=#60a917;strokeColor=#2D7600;movable=1;resizable=1;rotatable=1;deletable=1;editable=1;locked=0;connectable=1;jumpStyle=none;" parent="1" source="fTM0DNvJYfySXZwp9rKw-109" target="fTM0DNvJYfySXZwp9rKw-138" edge="1">
          <mxGeometry relative="1" as="geometry">
            <Array as="points">
              <mxPoint x="632" y="110" />
              <mxPoint x="477" y="110" />
            </Array>
          </mxGeometry>
        </mxCell>
        <mxCell id="fTM0DNvJYfySXZwp9rKw-109" value="" style="shape=waypoint;sketch=0;fillStyle=solid;size=6;pointerEvents=1;points=[];fillColor=#60a917;resizable=1;rotatable=1;perimeter=centerPerimeter;snapToPoint=1;fontColor=#ffffff;strokeColor=#2D7600;movable=1;deletable=1;editable=1;locked=0;connectable=1;" parent="1" vertex="1">
          <mxGeometry x="622" y="195" width="20" height="20" as="geometry" />
        </mxCell>
        <mxCell id="DFjxJVPFyk8L71EdaPLH-17" style="edgeStyle=orthogonalEdgeStyle;rounded=0;orthogonalLoop=1;jettySize=auto;html=1;entryX=0;entryY=0.5;entryDx=0;entryDy=0;fillColor=#60a917;strokeColor=#2D7600;endArrow=none;endFill=0;movable=1;resizable=1;rotatable=1;deletable=1;editable=1;locked=0;connectable=1;jumpStyle=none;" parent="1" source="fTM0DNvJYfySXZwp9rKw-110" target="fTM0DNvJYfySXZwp9rKw-27" edge="1">
          <mxGeometry relative="1" as="geometry">
            <Array as="points">
              <mxPoint x="472" y="365" />
            </Array>
          </mxGeometry>
        </mxCell>
        <mxCell id="fTM0DNvJYfySXZwp9rKw-110" value="" style="shape=waypoint;sketch=0;fillStyle=solid;size=6;pointerEvents=1;points=[];fillColor=#60a917;resizable=1;rotatable=1;perimeter=centerPerimeter;snapToPoint=1;fontColor=#ffffff;strokeColor=#2D7600;movable=1;deletable=1;editable=1;locked=0;connectable=1;" parent="1" vertex="1">
          <mxGeometry x="462" y="236" width="20" height="20" as="geometry" />
        </mxCell>
        <mxCell id="DFjxJVPFyk8L71EdaPLH-19" style="edgeStyle=orthogonalEdgeStyle;rounded=0;orthogonalLoop=1;jettySize=auto;html=1;entryX=0;entryY=0.5;entryDx=0;entryDy=0;fillColor=#e1d5e7;strokeColor=#9673a6;endArrow=blockThin;endFill=1;movable=1;resizable=1;rotatable=1;deletable=1;editable=1;locked=0;connectable=1;jumpStyle=none;" parent="1" source="fTM0DNvJYfySXZwp9rKw-111" target="fTM0DNvJYfySXZwp9rKw-26" edge="1">
          <mxGeometry relative="1" as="geometry">
            <mxPoint x="463" y="351" as="targetPoint" />
            <Array as="points">
              <mxPoint x="462" y="355" />
            </Array>
          </mxGeometry>
        </mxCell>
        <mxCell id="fTM0DNvJYfySXZwp9rKw-111" value="" style="shape=waypoint;sketch=0;fillStyle=solid;size=6;pointerEvents=1;points=[];fillColor=#e1d5e7;resizable=1;rotatable=1;perimeter=centerPerimeter;snapToPoint=1;strokeColor=#9673a6;movable=1;deletable=1;editable=1;locked=0;connectable=1;" parent="1" vertex="1">
          <mxGeometry x="452" y="226" width="20" height="20" as="geometry" />
        </mxCell>
        <mxCell id="fTM0DNvJYfySXZwp9rKw-112" value="" style="group;movable=1;resizable=1;rotatable=1;deletable=1;editable=1;locked=0;connectable=1;" parent="1" vertex="1" connectable="0">
          <mxGeometry x="810" y="200" width="120" height="210" as="geometry" />
        </mxCell>
        <mxCell id="fTM0DNvJYfySXZwp9rKw-113" value="" style="rounded=0;whiteSpace=wrap;html=1;movable=1;resizable=1;rotatable=1;deletable=1;editable=1;locked=0;connectable=1;container=0;" parent="fTM0DNvJYfySXZwp9rKw-112" vertex="1">
          <mxGeometry width="120" height="210" as="geometry" />
        </mxCell>
        <mxCell id="fTM0DNvJYfySXZwp9rKw-114" value="&lt;font color=&quot;#ff0000&quot;&gt;PS-side&lt;/font&gt;" style="text;html=1;strokeColor=none;fillColor=none;align=center;verticalAlign=middle;whiteSpace=wrap;rounded=0;fontSize=8;movable=1;resizable=1;rotatable=1;deletable=1;editable=1;locked=0;connectable=1;container=0;" parent="fTM0DNvJYfySXZwp9rKw-112" vertex="1">
          <mxGeometry x="30" y="200" width="60" height="10" as="geometry" />
        </mxCell>
        <mxCell id="fTM0DNvJYfySXZwp9rKw-115" value="&lt;font style=&quot;font-size: 8px;&quot;&gt;AW_ADDR[31:0]&lt;/font&gt;" style="text;html=1;strokeColor=none;fillColor=none;align=left;verticalAlign=middle;whiteSpace=wrap;rounded=0;strokeWidth=0;fontSize=8;horizontal=1;movable=1;resizable=1;rotatable=1;deletable=1;editable=1;locked=0;connectable=1;container=0;" parent="fTM0DNvJYfySXZwp9rKw-112" vertex="1">
          <mxGeometry y="10" width="60" height="10" as="geometry" />
        </mxCell>
        <mxCell id="fTM0DNvJYfySXZwp9rKw-116" value="&lt;font style=&quot;font-size: 8px;&quot;&gt;AW_LEN[7:0]&lt;/font&gt;" style="text;html=1;strokeColor=none;fillColor=none;align=left;verticalAlign=middle;whiteSpace=wrap;rounded=0;strokeWidth=0;fontSize=8;horizontal=1;movable=1;resizable=1;rotatable=1;deletable=1;editable=1;locked=0;connectable=1;container=0;" parent="fTM0DNvJYfySXZwp9rKw-112" vertex="1">
          <mxGeometry y="20" width="60" height="10" as="geometry" />
        </mxCell>
        <mxCell id="fTM0DNvJYfySXZwp9rKw-117" value="&lt;font style=&quot;font-size: 8px;&quot;&gt;AW_SIZE[2:0]&lt;/font&gt;" style="text;html=1;strokeColor=none;fillColor=none;align=left;verticalAlign=middle;whiteSpace=wrap;rounded=0;strokeWidth=0;fontSize=8;horizontal=1;movable=1;resizable=1;rotatable=1;deletable=1;editable=1;locked=0;connectable=1;container=0;" parent="fTM0DNvJYfySXZwp9rKw-112" vertex="1">
          <mxGeometry y="30" width="60" height="10" as="geometry" />
        </mxCell>
        <mxCell id="fTM0DNvJYfySXZwp9rKw-118" value="&lt;font style=&quot;font-size: 8px;&quot;&gt;AW_BURST[1:0]&lt;/font&gt;" style="text;html=1;strokeColor=none;fillColor=none;align=left;verticalAlign=middle;whiteSpace=wrap;rounded=0;strokeWidth=0;fontSize=8;horizontal=1;movable=1;resizable=1;rotatable=1;deletable=1;editable=1;locked=0;connectable=1;container=0;" parent="fTM0DNvJYfySXZwp9rKw-112" vertex="1">
          <mxGeometry y="40" width="60" height="10" as="geometry" />
        </mxCell>
        <mxCell id="fTM0DNvJYfySXZwp9rKw-119" value="&lt;font style=&quot;font-size: 8px;&quot;&gt;AW_VALID&lt;/font&gt;" style="text;html=1;strokeColor=none;fillColor=none;align=left;verticalAlign=middle;whiteSpace=wrap;rounded=0;strokeWidth=0;fontSize=8;horizontal=1;movable=1;resizable=1;rotatable=1;deletable=1;editable=1;locked=0;connectable=1;container=0;" parent="fTM0DNvJYfySXZwp9rKw-112" vertex="1">
          <mxGeometry y="50" width="60" height="10" as="geometry" />
        </mxCell>
        <mxCell id="fTM0DNvJYfySXZwp9rKw-120" value="&lt;font style=&quot;font-size: 8px;&quot;&gt;AW_READY&lt;/font&gt;" style="text;html=1;strokeColor=none;fillColor=none;align=left;verticalAlign=middle;whiteSpace=wrap;rounded=0;strokeWidth=0;fontSize=8;horizontal=1;movable=1;resizable=1;rotatable=1;deletable=1;editable=1;locked=0;connectable=1;container=0;" parent="fTM0DNvJYfySXZwp9rKw-112" vertex="1">
          <mxGeometry y="60" width="60" height="10" as="geometry" />
        </mxCell>
        <mxCell id="fTM0DNvJYfySXZwp9rKw-121" value="&lt;font style=&quot;font-size: 8px;&quot;&gt;WDATA[63:0]&lt;/font&gt;" style="text;html=1;strokeColor=none;fillColor=none;align=left;verticalAlign=middle;whiteSpace=wrap;rounded=0;strokeWidth=0;fontSize=8;horizontal=1;movable=1;resizable=1;rotatable=1;deletable=1;editable=1;locked=0;connectable=1;container=0;" parent="fTM0DNvJYfySXZwp9rKw-112" vertex="1">
          <mxGeometry y="80" width="60" height="10" as="geometry" />
        </mxCell>
        <mxCell id="fTM0DNvJYfySXZwp9rKw-122" value="&lt;font style=&quot;font-size: 8px;&quot;&gt;WLAST&lt;/font&gt;" style="text;html=1;strokeColor=none;fillColor=none;align=left;verticalAlign=middle;whiteSpace=wrap;rounded=0;strokeWidth=0;fontSize=8;horizontal=1;movable=1;resizable=1;rotatable=1;deletable=1;editable=1;locked=0;connectable=1;container=0;" parent="fTM0DNvJYfySXZwp9rKw-112" vertex="1">
          <mxGeometry y="90" width="60" height="10" as="geometry" />
        </mxCell>
        <mxCell id="fTM0DNvJYfySXZwp9rKw-123" value="&lt;font style=&quot;font-size: 8px;&quot;&gt;WVALID&lt;/font&gt;" style="text;html=1;strokeColor=none;fillColor=none;align=left;verticalAlign=middle;whiteSpace=wrap;rounded=0;strokeWidth=0;fontSize=8;horizontal=1;movable=1;resizable=1;rotatable=1;deletable=1;editable=1;locked=0;connectable=1;container=0;" parent="fTM0DNvJYfySXZwp9rKw-112" vertex="1">
          <mxGeometry y="100" width="60" height="10" as="geometry" />
        </mxCell>
        <mxCell id="fTM0DNvJYfySXZwp9rKw-124" value="&lt;font style=&quot;font-size: 8px;&quot;&gt;WREADY&lt;/font&gt;" style="text;html=1;strokeColor=none;fillColor=none;align=left;verticalAlign=middle;whiteSpace=wrap;rounded=0;strokeWidth=0;fontSize=8;horizontal=1;movable=1;resizable=1;rotatable=1;deletable=1;editable=1;locked=0;connectable=1;container=0;" parent="fTM0DNvJYfySXZwp9rKw-112" vertex="1">
          <mxGeometry y="110" width="60" height="10" as="geometry" />
        </mxCell>
        <mxCell id="fTM0DNvJYfySXZwp9rKw-125" value="&lt;font style=&quot;font-size: 8px;&quot;&gt;BRESP[1:0]&lt;/font&gt;" style="text;html=1;strokeColor=none;fillColor=none;align=left;verticalAlign=middle;whiteSpace=wrap;rounded=0;strokeWidth=0;fontSize=8;horizontal=1;movable=1;resizable=1;rotatable=1;deletable=1;editable=1;locked=0;connectable=1;container=0;" parent="fTM0DNvJYfySXZwp9rKw-112" vertex="1">
          <mxGeometry y="130" width="60" height="10" as="geometry" />
        </mxCell>
        <mxCell id="fTM0DNvJYfySXZwp9rKw-126" value="&lt;font style=&quot;font-size: 8px;&quot;&gt;BVALID&lt;/font&gt;" style="text;html=1;strokeColor=none;fillColor=none;align=left;verticalAlign=middle;whiteSpace=wrap;rounded=0;strokeWidth=0;fontSize=8;horizontal=1;movable=1;resizable=1;rotatable=1;deletable=1;editable=1;locked=0;connectable=1;container=0;" parent="fTM0DNvJYfySXZwp9rKw-112" vertex="1">
          <mxGeometry y="140" width="60" height="10" as="geometry" />
        </mxCell>
        <mxCell id="fTM0DNvJYfySXZwp9rKw-127" value="&lt;font style=&quot;font-size: 8px;&quot;&gt;BREADY&lt;/font&gt;" style="text;html=1;strokeColor=none;fillColor=none;align=left;verticalAlign=middle;whiteSpace=wrap;rounded=0;strokeWidth=0;fontSize=8;horizontal=1;movable=1;resizable=1;rotatable=1;deletable=1;editable=1;locked=0;connectable=1;container=0;" parent="fTM0DNvJYfySXZwp9rKw-112" vertex="1">
          <mxGeometry y="150" width="60" height="10" as="geometry" />
        </mxCell>
        <mxCell id="fTM0DNvJYfySXZwp9rKw-128" value="" style="endArrow=none;html=1;rounded=0;endFill=0;movable=1;resizable=1;rotatable=1;deletable=1;editable=1;locked=0;connectable=1;jumpStyle=none;" parent="1" edge="1">
          <mxGeometry width="50" height="50" relative="1" as="geometry">
            <mxPoint x="760" y="465" as="sourcePoint" />
            <mxPoint x="622" y="465" as="targetPoint" />
          </mxGeometry>
        </mxCell>
        <mxCell id="fTM0DNvJYfySXZwp9rKw-129" value="" style="endArrow=blockThin;html=1;rounded=0;endFill=1;movable=1;resizable=1;rotatable=1;deletable=1;editable=1;locked=0;connectable=1;jumpStyle=none;" parent="1" edge="1">
          <mxGeometry width="50" height="50" relative="1" as="geometry">
            <mxPoint x="760" y="215" as="sourcePoint" />
            <mxPoint x="810" y="215" as="targetPoint" />
          </mxGeometry>
        </mxCell>
        <mxCell id="fTM0DNvJYfySXZwp9rKw-130" value="" style="endArrow=blockThin;html=1;rounded=0;endFill=1;movable=1;resizable=1;rotatable=1;deletable=1;editable=1;locked=0;connectable=1;jumpStyle=none;" parent="1" edge="1">
          <mxGeometry width="50" height="50" relative="1" as="geometry">
            <mxPoint x="770" y="226" as="sourcePoint" />
            <mxPoint x="810" y="225.68" as="targetPoint" />
          </mxGeometry>
        </mxCell>
        <mxCell id="fTM0DNvJYfySXZwp9rKw-131" value="" style="endArrow=blockThin;html=1;rounded=0;endFill=1;movable=1;resizable=1;rotatable=1;deletable=1;editable=1;locked=0;connectable=1;jumpStyle=none;" parent="1" edge="1">
          <mxGeometry width="50" height="50" relative="1" as="geometry">
            <mxPoint x="770" y="236" as="sourcePoint" />
            <mxPoint x="810" y="235.84" as="targetPoint" />
          </mxGeometry>
        </mxCell>
        <mxCell id="fTM0DNvJYfySXZwp9rKw-132" value="" style="endArrow=blockThin;html=1;rounded=0;endFill=1;movable=1;resizable=1;rotatable=1;deletable=1;editable=1;locked=0;connectable=1;jumpStyle=none;" parent="1" edge="1">
          <mxGeometry width="50" height="50" relative="1" as="geometry">
            <mxPoint x="770" y="246" as="sourcePoint" />
            <mxPoint x="810" y="245.68" as="targetPoint" />
          </mxGeometry>
        </mxCell>
        <mxCell id="fTM0DNvJYfySXZwp9rKw-135" value="" style="endArrow=none;html=1;rounded=0;endFill=0;movable=1;resizable=1;rotatable=1;deletable=1;editable=1;locked=0;connectable=1;fillColor=#1ba1e2;strokeColor=#006EAF;startArrow=blockThin;startFill=1;jumpStyle=none;" parent="1" edge="1">
          <mxGeometry width="50" height="50" relative="1" as="geometry">
            <mxPoint x="810" y="255" as="sourcePoint" />
            <mxPoint x="740" y="255" as="targetPoint" />
          </mxGeometry>
        </mxCell>
        <mxCell id="fTM0DNvJYfySXZwp9rKw-136" value="" style="group;movable=1;resizable=1;rotatable=1;deletable=1;editable=1;locked=0;connectable=1;" parent="1" vertex="1" connectable="0">
          <mxGeometry x="462" y="125" width="20" height="25" as="geometry" />
        </mxCell>
        <mxCell id="fTM0DNvJYfySXZwp9rKw-137" value="" style="shape=delay;whiteSpace=wrap;html=1;rotation=90;rounded=0;movable=1;resizable=1;rotatable=1;deletable=1;editable=1;locked=0;connectable=1;" parent="fTM0DNvJYfySXZwp9rKw-136" vertex="1">
          <mxGeometry y="5" width="20" height="20" as="geometry" />
        </mxCell>
        <mxCell id="fTM0DNvJYfySXZwp9rKw-138" value="" style="ellipse;whiteSpace=wrap;html=1;aspect=fixed;movable=1;resizable=1;rotatable=1;deletable=1;editable=1;locked=0;connectable=1;" parent="fTM0DNvJYfySXZwp9rKw-136" vertex="1">
          <mxGeometry x="12" width="5" height="5" as="geometry" />
        </mxCell>
        <mxCell id="fTM0DNvJYfySXZwp9rKw-143" value="" style="endArrow=none;html=1;rounded=0;endFill=0;fillColor=#d80073;strokeColor=#A50040;movable=1;resizable=1;rotatable=1;deletable=1;editable=1;locked=0;connectable=1;jumpStyle=none;" parent="1" edge="1">
          <mxGeometry width="50" height="50" relative="1" as="geometry">
            <mxPoint x="740" y="210.46" as="sourcePoint" />
            <mxPoint x="725" y="210.46" as="targetPoint" />
          </mxGeometry>
        </mxCell>
        <mxCell id="fTM0DNvJYfySXZwp9rKw-145" value="" style="endArrow=none;html=1;rounded=0;endFill=0;fillColor=#d80073;strokeColor=#A50040;movable=1;resizable=1;rotatable=1;deletable=1;editable=1;locked=0;connectable=1;jumpStyle=none;" parent="1" edge="1">
          <mxGeometry width="50" height="50" relative="1" as="geometry">
            <mxPoint x="740" y="190" as="sourcePoint" />
            <mxPoint x="740" y="210.46" as="targetPoint" />
          </mxGeometry>
        </mxCell>
        <mxCell id="fTM0DNvJYfySXZwp9rKw-146" value="" style="endArrow=none;html=1;rounded=0;endFill=0;fillColor=#d80073;strokeColor=#A50040;movable=1;resizable=1;rotatable=1;deletable=1;editable=1;locked=0;connectable=1;jumpStyle=none;" parent="1" edge="1">
          <mxGeometry width="50" height="50" relative="1" as="geometry">
            <mxPoint x="670" y="190" as="sourcePoint" />
            <mxPoint x="740" y="190" as="targetPoint" />
          </mxGeometry>
        </mxCell>
        <mxCell id="fTM0DNvJYfySXZwp9rKw-147" value="" style="endArrow=none;html=1;rounded=0;endFill=0;fillColor=#d80073;strokeColor=#A50040;movable=1;resizable=1;rotatable=1;deletable=1;editable=1;locked=0;connectable=1;jumpStyle=none;" parent="1" edge="1">
          <mxGeometry width="50" height="50" relative="1" as="geometry">
            <mxPoint x="622" y="216" as="sourcePoint" />
            <mxPoint x="670" y="216" as="targetPoint" />
          </mxGeometry>
        </mxCell>
        <mxCell id="fTM0DNvJYfySXZwp9rKw-148" value="" style="endArrow=none;html=1;rounded=0;endFill=0;fillColor=#d80073;strokeColor=#A50040;movable=1;resizable=1;rotatable=1;deletable=1;editable=1;locked=0;connectable=1;jumpStyle=none;" parent="1" edge="1">
          <mxGeometry width="50" height="50" relative="1" as="geometry">
            <mxPoint x="670" y="336" as="sourcePoint" />
            <mxPoint x="670" y="190" as="targetPoint" />
          </mxGeometry>
        </mxCell>
        <mxCell id="fTM0DNvJYfySXZwp9rKw-204" style="edgeStyle=orthogonalEdgeStyle;rounded=0;orthogonalLoop=1;jettySize=auto;html=1;endArrow=none;endFill=0;fillColor=#fad7ac;strokeColor=#b46504;movable=1;resizable=1;rotatable=1;deletable=1;editable=1;locked=0;connectable=1;jumpStyle=none;" parent="1" source="fTM0DNvJYfySXZwp9rKw-152" target="fTM0DNvJYfySXZwp9rKw-163" edge="1">
          <mxGeometry relative="1" as="geometry" />
        </mxCell>
        <mxCell id="fTM0DNvJYfySXZwp9rKw-207" style="edgeStyle=orthogonalEdgeStyle;rounded=0;orthogonalLoop=1;jettySize=auto;html=1;entryX=1;entryY=0.5;entryDx=0;entryDy=0;fillColor=#fad7ac;strokeColor=#b46504;endArrow=blockThin;endFill=1;movable=1;resizable=1;rotatable=1;deletable=1;editable=1;locked=0;connectable=1;jumpStyle=none;" parent="1" source="fTM0DNvJYfySXZwp9rKw-152" target="fTM0DNvJYfySXZwp9rKw-11" edge="1">
          <mxGeometry relative="1" as="geometry" />
        </mxCell>
        <mxCell id="rp5CnQPVf0M-Nyt8Gne1-7" style="edgeStyle=orthogonalEdgeStyle;rounded=0;orthogonalLoop=1;jettySize=auto;html=1;entryX=1;entryY=0.5;entryDx=0;entryDy=0;endArrow=none;endFill=0;fillColor=#fad7ac;strokeColor=#b46504;movable=1;resizable=1;rotatable=1;deletable=1;editable=1;locked=0;connectable=1;jumpStyle=none;" parent="1" source="fTM0DNvJYfySXZwp9rKw-152" target="fTM0DNvJYfySXZwp9rKw-167" edge="1">
          <mxGeometry relative="1" as="geometry">
            <Array as="points">
              <mxPoint x="690" y="217" />
            </Array>
          </mxGeometry>
        </mxCell>
        <mxCell id="fTM0DNvJYfySXZwp9rKw-152" value="" style="shape=waypoint;sketch=0;fillStyle=solid;size=6;pointerEvents=1;points=[];fillColor=#fad7ac;resizable=1;rotatable=1;perimeter=centerPerimeter;snapToPoint=1;movable=1;deletable=1;editable=1;locked=0;connectable=1;strokeColor=#b46504;" parent="1" vertex="1">
          <mxGeometry x="680" y="235" width="20" height="20" as="geometry" />
        </mxCell>
        <mxCell id="fTM0DNvJYfySXZwp9rKw-193" style="edgeStyle=orthogonalEdgeStyle;rounded=0;orthogonalLoop=1;jettySize=auto;html=1;entryX=1;entryY=0.5;entryDx=0;entryDy=0;fillColor=#1ba1e2;strokeColor=#006EAF;endArrow=none;endFill=0;movable=1;resizable=1;rotatable=1;deletable=1;editable=1;locked=0;connectable=1;jumpStyle=none;" parent="1" source="fTM0DNvJYfySXZwp9rKw-154" target="fTM0DNvJYfySXZwp9rKw-21" edge="1">
          <mxGeometry relative="1" as="geometry">
            <mxPoint x="734" y="463" as="targetPoint" />
            <Array as="points">
              <mxPoint x="740" y="475" />
            </Array>
          </mxGeometry>
        </mxCell>
        <mxCell id="fTM0DNvJYfySXZwp9rKw-194" style="edgeStyle=orthogonalEdgeStyle;rounded=0;orthogonalLoop=1;jettySize=auto;html=1;endArrow=none;endFill=0;entryX=0;entryY=0.25;entryDx=0;entryDy=0;fillColor=#d80073;strokeColor=#A50040;movable=1;resizable=1;rotatable=1;deletable=1;editable=1;locked=0;connectable=1;jumpStyle=none;" parent="1" source="fTM0DNvJYfySXZwp9rKw-154" target="fTM0DNvJYfySXZwp9rKw-167" edge="1">
          <mxGeometry relative="1" as="geometry">
            <mxPoint x="736" y="234" as="targetPoint" />
            <Array as="points">
              <mxPoint x="740" y="222" />
            </Array>
          </mxGeometry>
        </mxCell>
        <mxCell id="fTM0DNvJYfySXZwp9rKw-154" value="" style="shape=waypoint;sketch=0;fillStyle=solid;size=6;pointerEvents=1;points=[];fillColor=#1ba1e2;resizable=1;rotatable=1;perimeter=centerPerimeter;snapToPoint=1;movable=1;deletable=1;editable=1;locked=0;connectable=1;fontColor=#ffffff;strokeColor=#006EAF;" parent="1" vertex="1">
          <mxGeometry x="730" y="245" width="20" height="20" as="geometry" />
        </mxCell>
        <mxCell id="fTM0DNvJYfySXZwp9rKw-155" value="" style="endArrow=none;html=1;rounded=0;endFill=0;fillColor=#d80073;strokeColor=#A50040;movable=1;resizable=1;rotatable=1;deletable=1;editable=1;locked=0;connectable=1;jumpStyle=none;" parent="1" edge="1">
          <mxGeometry width="50" height="50" relative="1" as="geometry">
            <mxPoint x="670" y="336" as="sourcePoint" />
            <mxPoint x="622" y="336" as="targetPoint" />
          </mxGeometry>
        </mxCell>
        <mxCell id="fTM0DNvJYfySXZwp9rKw-156" value="" style="shape=waypoint;sketch=0;fillStyle=solid;size=6;pointerEvents=1;points=[];fillColor=#d80073;resizable=1;rotatable=1;perimeter=centerPerimeter;snapToPoint=1;movable=1;deletable=1;editable=1;locked=0;connectable=1;fontColor=#ffffff;strokeColor=#A50040;" parent="1" vertex="1">
          <mxGeometry x="660" y="206" width="20" height="20" as="geometry" />
        </mxCell>
        <mxCell id="fTM0DNvJYfySXZwp9rKw-161" value="" style="endArrow=none;html=1;rounded=0;endFill=0;movable=1;resizable=1;rotatable=1;deletable=1;editable=1;locked=0;connectable=1;jumpStyle=none;" parent="1" edge="1">
          <mxGeometry width="50" height="50" relative="1" as="geometry">
            <mxPoint x="760" y="215" as="sourcePoint" />
            <mxPoint x="760" y="465" as="targetPoint" />
          </mxGeometry>
        </mxCell>
        <mxCell id="fTM0DNvJYfySXZwp9rKw-199" style="edgeStyle=orthogonalEdgeStyle;rounded=0;orthogonalLoop=1;jettySize=auto;html=1;entryX=0;entryY=0.5;entryDx=0;entryDy=0;fillColor=#fad7ac;strokeColor=#b46504;endArrow=blockThin;endFill=1;movable=1;resizable=1;rotatable=1;deletable=1;editable=1;locked=0;connectable=1;jumpStyle=none;" parent="1" source="fTM0DNvJYfySXZwp9rKw-201" target="fTM0DNvJYfySXZwp9rKw-123" edge="1">
          <mxGeometry relative="1" as="geometry" />
        </mxCell>
        <mxCell id="fTM0DNvJYfySXZwp9rKw-203" style="edgeStyle=orthogonalEdgeStyle;rounded=0;orthogonalLoop=1;jettySize=auto;html=1;fillColor=#fad7ac;strokeColor=#b46504;endArrow=none;endFill=0;movable=1;resizable=1;rotatable=1;deletable=1;editable=1;locked=0;connectable=1;jumpStyle=none;" parent="1" source="fTM0DNvJYfySXZwp9rKw-163" target="fTM0DNvJYfySXZwp9rKw-201" edge="1">
          <mxGeometry relative="1" as="geometry" />
        </mxCell>
        <mxCell id="fTM0DNvJYfySXZwp9rKw-205" style="edgeStyle=orthogonalEdgeStyle;rounded=0;orthogonalLoop=1;jettySize=auto;html=1;entryX=1;entryY=0.75;entryDx=0;entryDy=0;fillColor=#fad7ac;strokeColor=#b46504;endArrow=blockThin;endFill=1;movable=1;resizable=1;rotatable=1;deletable=1;editable=1;locked=0;connectable=1;jumpStyle=none;" parent="1" source="fTM0DNvJYfySXZwp9rKw-163" target="fTM0DNvJYfySXZwp9rKw-31" edge="1">
          <mxGeometry relative="1" as="geometry">
            <Array as="points">
              <mxPoint x="690" y="368" />
            </Array>
          </mxGeometry>
        </mxCell>
        <mxCell id="fTM0DNvJYfySXZwp9rKw-163" value="" style="shape=waypoint;sketch=0;fillStyle=solid;size=6;pointerEvents=1;points=[];fillColor=#fad7ac;resizable=1;rotatable=1;perimeter=centerPerimeter;snapToPoint=1;movable=1;deletable=1;editable=1;locked=0;connectable=1;strokeColor=#b46504;" parent="1" vertex="1">
          <mxGeometry x="680" y="295" width="20" height="20" as="geometry" />
        </mxCell>
        <mxCell id="DFjxJVPFyk8L71EdaPLH-1" style="edgeStyle=orthogonalEdgeStyle;rounded=0;orthogonalLoop=1;jettySize=auto;html=1;entryX=0;entryY=0.5;entryDx=0;entryDy=0;endArrow=blockThin;endFill=1;strokeColor=#FF0000;strokeWidth=3;movable=1;resizable=1;rotatable=1;deletable=1;editable=1;locked=0;connectable=1;jumpStyle=none;" parent="1" source="fTM0DNvJYfySXZwp9rKw-164" target="fTM0DNvJYfySXZwp9rKw-121" edge="1">
          <mxGeometry relative="1" as="geometry" />
        </mxCell>
        <mxCell id="DFjxJVPFyk8L71EdaPLH-4" style="edgeStyle=orthogonalEdgeStyle;rounded=0;orthogonalLoop=1;jettySize=auto;html=1;entryX=1;entryY=0.5;entryDx=0;entryDy=0;endArrow=none;endFill=0;strokeColor=#FF0000;strokeWidth=3;movable=1;resizable=1;rotatable=1;deletable=1;editable=1;locked=0;connectable=1;jumpStyle=none;" parent="1" target="fTM0DNvJYfySXZwp9rKw-28" edge="1">
          <mxGeometry relative="1" as="geometry">
            <mxPoint x="652" y="285" as="sourcePoint" />
            <mxPoint x="624" y="355" as="targetPoint" />
            <Array as="points">
              <mxPoint x="650" y="285" />
              <mxPoint x="650" y="355" />
            </Array>
          </mxGeometry>
        </mxCell>
        <mxCell id="DFjxJVPFyk8L71EdaPLH-5" style="edgeStyle=orthogonalEdgeStyle;rounded=0;orthogonalLoop=1;jettySize=auto;html=1;entryX=1;entryY=0.5;entryDx=0;entryDy=0;endArrow=none;endFill=0;strokeColor=#FF0000;strokeWidth=3;movable=1;resizable=1;rotatable=1;deletable=1;editable=1;locked=0;connectable=1;jumpStyle=none;" parent="1" source="fTM0DNvJYfySXZwp9rKw-164" target="fTM0DNvJYfySXZwp9rKw-8" edge="1">
          <mxGeometry relative="1" as="geometry">
            <Array as="points">
              <mxPoint x="650" y="235" />
            </Array>
          </mxGeometry>
        </mxCell>
        <mxCell id="fTM0DNvJYfySXZwp9rKw-164" value="" style="shape=waypoint;sketch=0;fillStyle=solid;size=6;pointerEvents=1;points=[];fillColor=#FF3333;resizable=1;rotatable=1;perimeter=centerPerimeter;snapToPoint=1;movable=1;deletable=1;editable=1;locked=0;connectable=1;fontColor=#ffffff;strokeColor=#ff0000;strokeWidth=3;" parent="1" vertex="1">
          <mxGeometry x="640" y="275" width="20" height="20" as="geometry" />
        </mxCell>
        <mxCell id="fTM0DNvJYfySXZwp9rKw-165" value="" style="group;movable=1;resizable=1;rotatable=1;deletable=1;editable=1;locked=0;connectable=1;" parent="1" vertex="1" connectable="0">
          <mxGeometry x="700" y="207" width="25" height="20" as="geometry" />
        </mxCell>
        <mxCell id="fTM0DNvJYfySXZwp9rKw-166" value="" style="ellipse;whiteSpace=wrap;html=1;aspect=fixed;movable=1;resizable=1;rotatable=1;deletable=1;editable=1;locked=0;connectable=1;container=0;" parent="fTM0DNvJYfySXZwp9rKw-165" vertex="1">
          <mxGeometry x="20" y="1" width="5" height="5" as="geometry" />
        </mxCell>
        <mxCell id="fTM0DNvJYfySXZwp9rKw-167" value="" style="shape=delay;whiteSpace=wrap;html=1;rotation=-180;rounded=0;movable=1;resizable=1;rotatable=1;deletable=1;editable=1;locked=0;connectable=1;container=0;" parent="fTM0DNvJYfySXZwp9rKw-165" vertex="1">
          <mxGeometry width="20" height="20" as="geometry" />
        </mxCell>
        <mxCell id="fTM0DNvJYfySXZwp9rKw-198" style="edgeStyle=orthogonalEdgeStyle;rounded=0;orthogonalLoop=1;jettySize=auto;html=1;exitX=0;exitY=0.25;exitDx=0;exitDy=0;endArrow=none;endFill=0;entryX=0;entryY=0.5;entryDx=0;entryDy=0;fillColor=#d80073;strokeColor=#A50040;movable=1;resizable=1;rotatable=1;deletable=1;editable=1;locked=0;connectable=1;jumpStyle=none;" parent="1" source="fTM0DNvJYfySXZwp9rKw-168" target="fTM0DNvJYfySXZwp9rKw-124" edge="1">
          <mxGeometry relative="1" as="geometry">
            <mxPoint x="796" y="316.4366812227074" as="targetPoint" />
            <Array as="points">
              <mxPoint x="799" y="395" />
              <mxPoint x="799" y="315" />
            </Array>
          </mxGeometry>
        </mxCell>
        <mxCell id="fTM0DNvJYfySXZwp9rKw-200" style="edgeStyle=orthogonalEdgeStyle;rounded=0;orthogonalLoop=1;jettySize=auto;html=1;exitX=0;exitY=0.75;exitDx=0;exitDy=0;endArrow=none;endFill=0;entryX=0.486;entryY=1.029;entryDx=0;entryDy=0;entryPerimeter=0;fillColor=#d80073;strokeColor=#A50040;movable=1;resizable=1;rotatable=1;deletable=1;editable=1;locked=0;connectable=1;jumpStyle=none;" parent="1" source="fTM0DNvJYfySXZwp9rKw-168" target="fTM0DNvJYfySXZwp9rKw-201" edge="1">
          <mxGeometry relative="1" as="geometry">
            <mxPoint x="720" y="305" as="targetPoint" />
          </mxGeometry>
        </mxCell>
        <mxCell id="DFjxJVPFyk8L71EdaPLH-15" style="edgeStyle=orthogonalEdgeStyle;rounded=0;orthogonalLoop=1;jettySize=auto;html=1;entryX=0.5;entryY=0;entryDx=0;entryDy=0;fillColor=#d80073;strokeColor=#A50040;movable=1;resizable=1;rotatable=1;deletable=1;editable=1;locked=0;connectable=1;jumpStyle=none;" parent="1" source="fTM0DNvJYfySXZwp9rKw-168" target="fTM0DNvJYfySXZwp9rKw-174" edge="1">
          <mxGeometry relative="1" as="geometry">
            <Array as="points">
              <mxPoint x="662" y="390" />
            </Array>
          </mxGeometry>
        </mxCell>
        <mxCell id="fTM0DNvJYfySXZwp9rKw-168" value="" style="shape=delay;whiteSpace=wrap;html=1;rotation=-180;rounded=0;movable=1;resizable=1;rotatable=1;deletable=1;editable=1;locked=0;connectable=1;container=0;" parent="1" vertex="1">
          <mxGeometry x="680" y="380" width="20" height="20" as="geometry" />
        </mxCell>
        <mxCell id="fTM0DNvJYfySXZwp9rKw-192" style="edgeStyle=orthogonalEdgeStyle;rounded=0;orthogonalLoop=1;jettySize=auto;html=1;entryX=0;entryY=0.5;entryDx=0;entryDy=0;fillColor=#0050ef;strokeColor=#001DBC;endArrow=blockThin;endFill=1;movable=1;resizable=1;rotatable=1;deletable=1;editable=1;locked=0;connectable=1;exitX=0.476;exitY=1.167;exitDx=0;exitDy=0;exitPerimeter=0;jumpStyle=none;" parent="1" source="gBf5a1rEPs-FKC83FTHr-3" target="fTM0DNvJYfySXZwp9rKw-179" edge="1">
          <mxGeometry relative="1" as="geometry">
            <mxPoint x="548" y="630" as="targetPoint" />
            <Array as="points">
              <mxPoint x="725" y="574" />
              <mxPoint x="602" y="574" />
              <mxPoint x="602" y="620" />
            </Array>
            <mxPoint x="684" y="574" as="sourcePoint" />
          </mxGeometry>
        </mxCell>
        <mxCell id="fTM0DNvJYfySXZwp9rKw-196" style="edgeStyle=orthogonalEdgeStyle;rounded=0;orthogonalLoop=1;jettySize=auto;html=1;entryX=0;entryY=0.5;entryDx=0;entryDy=0;fillColor=#0050ef;strokeColor=#001DBC;endArrow=blockThin;endFill=1;movable=1;resizable=1;rotatable=1;deletable=1;editable=1;locked=0;connectable=1;jumpStyle=none;" parent="1" source="gBf5a1rEPs-FKC83FTHr-3" target="fTM0DNvJYfySXZwp9rKw-122" edge="1">
          <mxGeometry relative="1" as="geometry">
            <Array as="points">
              <mxPoint x="782" y="295" />
            </Array>
          </mxGeometry>
        </mxCell>
        <mxCell id="fTM0DNvJYfySXZwp9rKw-174" value="&lt;font color=&quot;#ff0000&quot;&gt;burst_len_cnt&lt;/font&gt;" style="rounded=0;whiteSpace=wrap;html=1;movable=1;resizable=1;rotatable=1;deletable=1;editable=1;locked=0;connectable=1;" parent="1" vertex="1">
          <mxGeometry x="622" y="540" width="80" height="20" as="geometry" />
        </mxCell>
        <mxCell id="fTM0DNvJYfySXZwp9rKw-177" value="" style="group;movable=1;resizable=1;rotatable=1;deletable=1;editable=1;locked=0;connectable=1;" parent="1" vertex="1" connectable="0">
          <mxGeometry x="622" y="590" width="80" height="60" as="geometry" />
        </mxCell>
        <mxCell id="fTM0DNvJYfySXZwp9rKw-178" value="" style="rounded=0;whiteSpace=wrap;html=1;movable=1;resizable=1;rotatable=1;deletable=1;editable=1;locked=0;connectable=1;" parent="fTM0DNvJYfySXZwp9rKw-177" vertex="1">
          <mxGeometry width="80" height="60" as="geometry" />
        </mxCell>
        <mxCell id="fTM0DNvJYfySXZwp9rKw-179" value="Enable" style="text;html=1;strokeColor=none;fillColor=none;align=left;verticalAlign=middle;whiteSpace=wrap;rounded=0;strokeWidth=0;fontSize=8;horizontal=1;movable=1;resizable=1;rotatable=1;deletable=1;editable=1;locked=0;connectable=1;container=0;" parent="fTM0DNvJYfySXZwp9rKw-177" vertex="1">
          <mxGeometry y="25" width="60" height="10" as="geometry" />
        </mxCell>
        <mxCell id="fTM0DNvJYfySXZwp9rKw-180" value="rst_n" style="text;html=1;strokeColor=none;fillColor=none;align=left;verticalAlign=middle;whiteSpace=wrap;rounded=0;strokeWidth=0;fontSize=8;horizontal=1;movable=1;resizable=1;rotatable=1;deletable=1;editable=1;locked=0;connectable=1;container=0;" parent="fTM0DNvJYfySXZwp9rKw-177" vertex="1">
          <mxGeometry width="60" height="10" as="geometry" />
        </mxCell>
        <mxCell id="fTM0DNvJYfySXZwp9rKw-181" value="clock" style="text;html=1;strokeColor=none;fillColor=none;align=left;verticalAlign=middle;whiteSpace=wrap;rounded=0;strokeWidth=0;fontSize=8;horizontal=1;movable=1;resizable=1;rotatable=1;deletable=1;editable=1;locked=0;connectable=1;container=0;" parent="fTM0DNvJYfySXZwp9rKw-177" vertex="1">
          <mxGeometry y="10" width="60" height="10" as="geometry" />
        </mxCell>
        <mxCell id="fTM0DNvJYfySXZwp9rKw-182" value="trigger[1:0]" style="text;html=1;strokeColor=none;fillColor=none;align=right;verticalAlign=middle;whiteSpace=wrap;rounded=0;strokeWidth=0;fontSize=8;horizontal=1;movable=1;resizable=1;rotatable=1;deletable=1;editable=1;locked=0;connectable=1;container=0;" parent="fTM0DNvJYfySXZwp9rKw-177" vertex="1">
          <mxGeometry x="20" y="35" width="60" height="10" as="geometry" />
        </mxCell>
        <mxCell id="fTM0DNvJYfySXZwp9rKw-183" value="&lt;font color=&quot;#ff0000&quot;&gt;addr_trigger_cnt&lt;/font&gt;" style="text;html=1;strokeColor=none;fillColor=none;align=center;verticalAlign=middle;whiteSpace=wrap;rounded=0;fontSize=8;movable=1;resizable=1;rotatable=1;deletable=1;editable=1;locked=0;connectable=1;container=0;" parent="fTM0DNvJYfySXZwp9rKw-177" vertex="1">
          <mxGeometry x="10" y="50" width="60" height="10" as="geometry" />
        </mxCell>
        <mxCell id="fTM0DNvJYfySXZwp9rKw-191" style="edgeStyle=orthogonalEdgeStyle;orthogonalLoop=1;jettySize=auto;html=1;entryX=1;entryY=0.5;entryDx=0;entryDy=0;fillColor=#0050ef;strokeColor=#001DBC;rounded=0;endArrow=blockThin;endFill=1;movable=1;resizable=1;rotatable=1;deletable=1;editable=1;locked=0;connectable=1;jumpStyle=none;" parent="1" source="fTM0DNvJYfySXZwp9rKw-182" target="fTM0DNvJYfySXZwp9rKw-20" edge="1">
          <mxGeometry relative="1" as="geometry">
            <Array as="points">
              <mxPoint x="740" y="630" />
              <mxPoint x="740" y="485" />
            </Array>
          </mxGeometry>
        </mxCell>
        <mxCell id="fTM0DNvJYfySXZwp9rKw-195" style="edgeStyle=orthogonalEdgeStyle;orthogonalLoop=1;jettySize=auto;html=1;entryX=0;entryY=0.5;entryDx=0;entryDy=0;fillColor=#d80073;strokeColor=#A50040;endArrow=none;endFill=0;rounded=0;movable=1;resizable=1;rotatable=1;deletable=1;editable=1;locked=0;connectable=1;jumpStyle=none;" parent="1" source="fTM0DNvJYfySXZwp9rKw-167" target="fTM0DNvJYfySXZwp9rKw-120" edge="1">
          <mxGeometry relative="1" as="geometry">
            <Array as="points">
              <mxPoint x="749" y="217" />
              <mxPoint x="749" y="265" />
            </Array>
          </mxGeometry>
        </mxCell>
        <mxCell id="fTM0DNvJYfySXZwp9rKw-201" value="" style="shape=waypoint;sketch=0;fillStyle=solid;size=6;pointerEvents=1;points=[];fillColor=#fad7ac;resizable=1;rotatable=1;perimeter=centerPerimeter;snapToPoint=1;movable=1;deletable=1;editable=1;locked=0;connectable=1;strokeColor=#b46504;" parent="1" vertex="1">
          <mxGeometry x="710" y="295" width="20" height="20" as="geometry" />
        </mxCell>
        <mxCell id="rp5CnQPVf0M-Nyt8Gne1-6" style="edgeStyle=orthogonalEdgeStyle;rounded=0;orthogonalLoop=1;jettySize=auto;html=1;entryX=0;entryY=0.75;entryDx=0;entryDy=0;endArrow=none;endFill=0;fillColor=#60a917;strokeColor=#2D7600;movable=1;resizable=1;rotatable=1;deletable=1;editable=1;locked=0;connectable=1;jumpStyle=none;" parent="1" source="fTM0DNvJYfySXZwp9rKw-41" target="fTM0DNvJYfySXZwp9rKw-137" edge="1">
          <mxGeometry relative="1" as="geometry">
            <Array as="points">
              <mxPoint x="424" y="236" />
              <mxPoint x="424" y="110" />
              <mxPoint x="467" y="110" />
            </Array>
          </mxGeometry>
        </mxCell>
        <mxCell id="rp5CnQPVf0M-Nyt8Gne1-12" style="edgeStyle=orthogonalEdgeStyle;rounded=0;orthogonalLoop=1;jettySize=auto;html=1;endArrow=blockThin;endFill=1;entryX=0;entryY=0.5;entryDx=0;entryDy=0;strokeWidth=3;movable=1;resizable=1;rotatable=1;deletable=1;editable=1;locked=0;connectable=1;jumpStyle=none;" parent="1" source="fTM0DNvJYfySXZwp9rKw-51" target="fTM0DNvJYfySXZwp9rKw-47" edge="1">
          <mxGeometry relative="1" as="geometry">
            <mxPoint x="252" y="271" as="targetPoint" />
            <Array as="points">
              <mxPoint x="401" y="355" />
              <mxPoint x="401" y="311" />
              <mxPoint x="242" y="311" />
              <mxPoint x="242" y="266" />
            </Array>
          </mxGeometry>
        </mxCell>
        <mxCell id="fTM0DNvJYfySXZwp9rKw-36" value="" style="rounded=0;whiteSpace=wrap;html=1;movable=1;resizable=1;rotatable=1;deletable=1;editable=1;locked=0;connectable=1;container=0;" parent="1" vertex="1">
          <mxGeometry x="262" y="201" width="120" height="80" as="geometry" />
        </mxCell>
        <mxCell id="fTM0DNvJYfySXZwp9rKw-37" value="&lt;font style=&quot;font-size: 8px;&quot;&gt;master_rst_n&lt;/font&gt;" style="text;html=1;strokeColor=none;fillColor=none;align=left;verticalAlign=middle;whiteSpace=wrap;rounded=0;strokeWidth=0;fontSize=8;horizontal=1;movable=1;resizable=1;rotatable=1;deletable=1;editable=1;locked=0;connectable=1;container=0;" parent="1" vertex="1">
          <mxGeometry x="261" y="231" width="60" height="10" as="geometry" />
        </mxCell>
        <mxCell id="fTM0DNvJYfySXZwp9rKw-38" value="slave_clock" style="text;html=1;strokeColor=none;fillColor=none;align=left;verticalAlign=middle;whiteSpace=wrap;rounded=0;strokeWidth=0;fontSize=8;horizontal=1;movable=1;resizable=1;rotatable=1;deletable=1;editable=1;locked=0;connectable=1;container=0;" parent="1" vertex="1">
          <mxGeometry x="261" y="211" width="60" height="10" as="geometry" />
        </mxCell>
        <mxCell id="fTM0DNvJYfySXZwp9rKw-39" value="slave_rst_n" style="text;html=1;strokeColor=none;fillColor=none;align=left;verticalAlign=middle;whiteSpace=wrap;rounded=0;strokeWidth=0;fontSize=8;horizontal=1;movable=1;resizable=1;rotatable=1;deletable=1;editable=1;locked=0;connectable=1;container=0;" parent="1" vertex="1">
          <mxGeometry x="261" y="201" width="60" height="10" as="geometry" />
        </mxCell>
        <mxCell id="DFjxJVPFyk8L71EdaPLH-6" style="edgeStyle=orthogonalEdgeStyle;rounded=0;orthogonalLoop=1;jettySize=auto;html=1;entryX=0;entryY=0.5;entryDx=0;entryDy=0;fillColor=#dae8fc;strokeColor=#6c8ebf;movable=1;resizable=1;rotatable=1;deletable=1;editable=1;locked=0;connectable=1;endArrow=blockThin;endFill=1;jumpStyle=none;" parent="1" source="fTM0DNvJYfySXZwp9rKw-40" target="fTM0DNvJYfySXZwp9rKw-17" edge="1">
          <mxGeometry relative="1" as="geometry">
            <Array as="points">
              <mxPoint x="423" y="246" />
              <mxPoint x="423" y="475" />
            </Array>
          </mxGeometry>
        </mxCell>
        <mxCell id="fTM0DNvJYfySXZwp9rKw-40" value="&lt;font style=&quot;font-size: 8px;&quot;&gt;TUSER&lt;/font&gt;" style="text;html=1;strokeColor=none;fillColor=none;align=right;verticalAlign=middle;whiteSpace=wrap;rounded=0;strokeWidth=0;fontSize=8;horizontal=1;movable=1;resizable=1;rotatable=1;deletable=1;editable=1;locked=0;connectable=1;container=0;" parent="1" vertex="1">
          <mxGeometry x="322" y="241" width="60" height="10" as="geometry" />
        </mxCell>
        <mxCell id="fTM0DNvJYfySXZwp9rKw-41" value="TVALID" style="text;html=1;strokeColor=none;fillColor=none;align=right;verticalAlign=middle;whiteSpace=wrap;rounded=0;strokeWidth=0;fontSize=8;horizontal=1;movable=1;resizable=1;rotatable=1;deletable=1;editable=1;locked=0;connectable=1;container=0;" parent="1" vertex="1">
          <mxGeometry x="322" y="231" width="60" height="10" as="geometry" />
        </mxCell>
        <mxCell id="fTM0DNvJYfySXZwp9rKw-42" value="TREADY" style="text;html=1;strokeColor=none;fillColor=none;align=right;verticalAlign=middle;whiteSpace=wrap;rounded=0;strokeWidth=0;fontSize=8;horizontal=1;movable=1;resizable=1;rotatable=1;deletable=1;editable=1;locked=0;connectable=1;container=0;" parent="1" vertex="1">
          <mxGeometry x="322" y="221" width="60" height="10" as="geometry" />
        </mxCell>
        <mxCell id="fTM0DNvJYfySXZwp9rKw-43" value="&lt;font color=&quot;#ff0000&quot;&gt;AXI_stream_clk_convertor&lt;/font&gt;" style="text;html=1;strokeColor=none;fillColor=none;align=center;verticalAlign=middle;whiteSpace=wrap;rounded=0;fontSize=8;movable=1;resizable=1;rotatable=1;deletable=1;editable=1;locked=0;connectable=1;container=0;" parent="1" vertex="1">
          <mxGeometry x="292" y="271" width="60" height="10" as="geometry" />
        </mxCell>
        <mxCell id="fTM0DNvJYfySXZwp9rKw-44" value="&lt;font style=&quot;font-size: 8px;&quot;&gt;master_clock&lt;/font&gt;" style="text;html=1;strokeColor=none;fillColor=none;align=left;verticalAlign=middle;whiteSpace=wrap;rounded=0;strokeWidth=0;fontSize=8;horizontal=1;movable=1;resizable=1;rotatable=1;deletable=1;editable=1;locked=0;connectable=1;container=0;" parent="1" vertex="1">
          <mxGeometry x="261" y="241" width="60" height="10" as="geometry" />
        </mxCell>
        <mxCell id="fTM0DNvJYfySXZwp9rKw-45" value="TLAST" style="text;html=1;strokeColor=none;fillColor=none;align=right;verticalAlign=middle;whiteSpace=wrap;rounded=0;strokeWidth=0;fontSize=8;horizontal=1;movable=1;resizable=1;rotatable=1;deletable=1;editable=1;locked=0;connectable=1;container=0;" parent="1" vertex="1">
          <mxGeometry x="322" y="251" width="60" height="10" as="geometry" />
        </mxCell>
        <mxCell id="fTM0DNvJYfySXZwp9rKw-46" value="TDATA[47:0]" style="text;html=1;strokeColor=none;fillColor=none;align=right;verticalAlign=middle;whiteSpace=wrap;rounded=0;strokeWidth=0;fontSize=8;horizontal=1;movable=1;resizable=1;rotatable=1;deletable=1;editable=1;locked=0;connectable=1;container=0;" parent="1" vertex="1">
          <mxGeometry x="322" y="211" width="60" height="10" as="geometry" />
        </mxCell>
        <mxCell id="fTM0DNvJYfySXZwp9rKw-47" value="&lt;font style=&quot;font-size: 8px;&quot;&gt;S_AXI_stream&lt;/font&gt;" style="text;html=1;strokeColor=none;fillColor=none;align=left;verticalAlign=middle;whiteSpace=wrap;rounded=0;strokeWidth=0;fontSize=8;horizontal=1;movable=1;resizable=1;rotatable=1;deletable=1;editable=1;locked=0;connectable=1;container=0;" parent="1" vertex="1">
          <mxGeometry x="261" y="261" width="60" height="10" as="geometry" />
        </mxCell>
        <mxCell id="rp5CnQPVf0M-Nyt8Gne1-13" value="" style="endArrow=none;html=1;rounded=0;endFill=0;movable=1;resizable=1;rotatable=1;deletable=1;editable=1;locked=0;connectable=1;jumpStyle=none;" parent="1" target="fTM0DNvJYfySXZwp9rKw-103" edge="1">
          <mxGeometry width="50" height="50" relative="1" as="geometry">
            <mxPoint x="162" y="247" as="sourcePoint" />
            <mxPoint x="262" y="247" as="targetPoint" />
          </mxGeometry>
        </mxCell>
        <mxCell id="DFjxJVPFyk8L71EdaPLH-8" style="edgeStyle=orthogonalEdgeStyle;rounded=0;orthogonalLoop=1;jettySize=auto;html=1;entryX=0.44;entryY=0.09;entryDx=0;entryDy=0;entryPerimeter=0;endArrow=none;endFill=0;movable=1;resizable=1;rotatable=1;deletable=1;editable=1;locked=0;connectable=1;jumpStyle=none;" parent="1" source="fTM0DNvJYfySXZwp9rKw-103" target="fTM0DNvJYfySXZwp9rKw-106" edge="1">
          <mxGeometry relative="1" as="geometry">
            <mxPoint x="369.2316602316602" y="157" as="targetPoint" />
            <Array as="points">
              <mxPoint x="202" y="183" />
              <mxPoint x="482" y="183" />
            </Array>
          </mxGeometry>
        </mxCell>
        <mxCell id="fTM0DNvJYfySXZwp9rKw-103" value="" style="shape=waypoint;sketch=0;fillStyle=solid;size=6;pointerEvents=1;points=[];fillColor=none;resizable=1;rotatable=1;perimeter=centerPerimeter;snapToPoint=1;movable=1;deletable=1;editable=1;locked=0;connectable=1;" parent="1" vertex="1">
          <mxGeometry x="192" y="237" width="20" height="20" as="geometry" />
        </mxCell>
        <mxCell id="rp5CnQPVf0M-Nyt8Gne1-14" value="" style="endArrow=none;html=1;rounded=0;endFill=0;movable=1;resizable=1;rotatable=1;deletable=1;editable=1;locked=0;connectable=1;jumpStyle=none;" parent="1" target="fTM0DNvJYfySXZwp9rKw-104" edge="1">
          <mxGeometry width="50" height="50" relative="1" as="geometry">
            <mxPoint x="212" y="237" as="sourcePoint" />
            <mxPoint x="212" y="190" as="targetPoint" />
          </mxGeometry>
        </mxCell>
        <mxCell id="fTM0DNvJYfySXZwp9rKw-104" value="" style="shape=waypoint;sketch=0;fillStyle=solid;size=6;pointerEvents=1;points=[];fillColor=none;resizable=1;rotatable=1;perimeter=centerPerimeter;snapToPoint=1;movable=1;deletable=1;editable=1;locked=0;connectable=1;" parent="1" vertex="1">
          <mxGeometry x="202" y="227" width="20" height="20" as="geometry" />
        </mxCell>
        <mxCell id="rp5CnQPVf0M-Nyt8Gne1-15" style="edgeStyle=orthogonalEdgeStyle;rounded=0;orthogonalLoop=1;jettySize=auto;html=1;entryX=0.51;entryY=-0.047;entryDx=0;entryDy=0;entryPerimeter=0;endArrow=none;endFill=0;movable=1;resizable=1;rotatable=1;deletable=1;editable=1;locked=0;connectable=1;jumpStyle=none;" parent="1" source="fTM0DNvJYfySXZwp9rKw-104" target="fTM0DNvJYfySXZwp9rKw-105" edge="1">
          <mxGeometry relative="1" as="geometry">
            <Array as="points">
              <mxPoint x="212" y="176" />
              <mxPoint x="492" y="176" />
            </Array>
          </mxGeometry>
        </mxCell>
        <mxCell id="rp5CnQPVf0M-Nyt8Gne1-16" style="edgeStyle=orthogonalEdgeStyle;rounded=0;orthogonalLoop=1;jettySize=auto;html=1;entryX=0.582;entryY=0.055;entryDx=0;entryDy=0;entryPerimeter=0;endArrow=none;endFill=0;movable=1;resizable=1;rotatable=1;deletable=1;editable=1;locked=0;connectable=1;jumpStyle=none;" parent="1" source="fTM0DNvJYfySXZwp9rKw-105" target="fTM0DNvJYfySXZwp9rKw-107" edge="1">
          <mxGeometry relative="1" as="geometry" />
        </mxCell>
        <mxCell id="DFjxJVPFyk8L71EdaPLH-9" style="edgeStyle=orthogonalEdgeStyle;rounded=0;orthogonalLoop=1;jettySize=auto;html=1;entryX=0.448;entryY=0.016;entryDx=0;entryDy=0;entryPerimeter=0;endArrow=none;endFill=0;movable=1;resizable=1;rotatable=1;deletable=1;editable=1;locked=0;connectable=1;jumpStyle=none;" parent="1" source="fTM0DNvJYfySXZwp9rKw-106" target="fTM0DNvJYfySXZwp9rKw-108" edge="1">
          <mxGeometry relative="1" as="geometry" />
        </mxCell>
        <mxCell id="DFjxJVPFyk8L71EdaPLH-12" value="" style="endArrow=none;html=1;rounded=0;endFill=0;movable=1;resizable=1;rotatable=1;deletable=1;editable=1;locked=0;connectable=1;entryDx=0;entryDy=0;jumpStyle=none;" parent="1" target="DFjxJVPFyk8L71EdaPLH-11" edge="1">
          <mxGeometry width="50" height="50" relative="1" as="geometry">
            <mxPoint x="162" y="355" as="sourcePoint" />
            <mxPoint x="262" y="355" as="targetPoint" />
          </mxGeometry>
        </mxCell>
        <mxCell id="DFjxJVPFyk8L71EdaPLH-11" value="" style="shape=waypoint;sketch=0;fillStyle=solid;size=6;pointerEvents=1;points=[];fillColor=none;resizable=1;rotatable=1;perimeter=centerPerimeter;snapToPoint=1;movable=1;deletable=1;editable=1;locked=0;connectable=1;" parent="1" vertex="1">
          <mxGeometry x="221" y="345" width="20" height="20" as="geometry" />
        </mxCell>
        <mxCell id="DFjxJVPFyk8L71EdaPLH-14" value="" style="endArrow=none;html=1;rounded=0;endFill=0;movable=1;resizable=1;rotatable=1;deletable=1;editable=1;locked=0;connectable=1;jumpStyle=none;" parent="1" target="DFjxJVPFyk8L71EdaPLH-13" edge="1">
          <mxGeometry width="50" height="50" relative="1" as="geometry">
            <mxPoint x="162" y="367" as="sourcePoint" />
            <mxPoint x="262" y="367" as="targetPoint" />
          </mxGeometry>
        </mxCell>
        <mxCell id="DFjxJVPFyk8L71EdaPLH-13" value="" style="shape=waypoint;sketch=0;fillStyle=solid;size=6;pointerEvents=1;points=[];fillColor=none;resizable=1;rotatable=1;perimeter=centerPerimeter;snapToPoint=1;movable=1;deletable=1;editable=1;locked=0;connectable=1;" parent="1" vertex="1">
          <mxGeometry x="212" y="357" width="20" height="20" as="geometry" />
        </mxCell>
        <mxCell id="DFjxJVPFyk8L71EdaPLH-16" style="edgeStyle=orthogonalEdgeStyle;rounded=0;orthogonalLoop=1;jettySize=auto;html=1;entryX=0.633;entryY=-0.035;entryDx=0;entryDy=0;entryPerimeter=0;fillColor=#60a917;strokeColor=#2D7600;endArrow=none;endFill=0;movable=1;resizable=1;rotatable=1;deletable=1;editable=1;locked=0;connectable=1;jumpStyle=none;" parent="1" source="fTM0DNvJYfySXZwp9rKw-136" target="fTM0DNvJYfySXZwp9rKw-110" edge="1">
          <mxGeometry relative="1" as="geometry" />
        </mxCell>
        <mxCell id="DFjxJVPFyk8L71EdaPLH-18" style="edgeStyle=orthogonalEdgeStyle;rounded=0;orthogonalLoop=1;jettySize=auto;html=1;entryX=0.55;entryY=0.085;entryDx=0;entryDy=0;entryPerimeter=0;fillColor=#e1d5e7;strokeColor=#9673a6;endArrow=none;endFill=0;movable=1;resizable=1;rotatable=1;deletable=1;editable=1;locked=0;connectable=1;jumpStyle=none;" parent="1" source="fTM0DNvJYfySXZwp9rKw-46" target="fTM0DNvJYfySXZwp9rKw-111" edge="1">
          <mxGeometry relative="1" as="geometry">
            <Array as="points">
              <mxPoint x="462" y="216" />
            </Array>
          </mxGeometry>
        </mxCell>
        <mxCell id="gBf5a1rEPs-FKC83FTHr-1" value="&lt;p style=&quot;line-height: 100%;&quot;&gt;&lt;span style=&quot;font-size: 7px;&quot;&gt;w_out_cnt&lt;/span&gt;&lt;/p&gt;" style="text;html=1;strokeColor=none;fillColor=none;align=center;verticalAlign=middle;whiteSpace=wrap;rounded=0;movable=1;resizable=1;rotatable=1;deletable=1;editable=1;locked=0;connectable=1;" parent="1" vertex="1">
          <mxGeometry x="703" y="619" width="37" height="10" as="geometry" />
        </mxCell>
        <mxCell id="gBf5a1rEPs-FKC83FTHr-2" value="&lt;p style=&quot;line-height: 100%;&quot;&gt;&lt;span style=&quot;font-size: 7px;&quot;&gt;w_out_cnt&lt;/span&gt;&lt;/p&gt;" style="text;html=1;strokeColor=none;fillColor=none;align=center;verticalAlign=middle;whiteSpace=wrap;rounded=0;movable=1;resizable=1;rotatable=1;deletable=1;editable=1;locked=0;connectable=1;" parent="1" vertex="1">
          <mxGeometry x="632" y="659" width="60" height="30" as="geometry" />
        </mxCell>
        <mxCell id="gBf5a1rEPs-FKC83FTHr-4" value="" style="edgeStyle=orthogonalEdgeStyle;rounded=0;orthogonalLoop=1;jettySize=auto;html=1;entryDx=0;entryDy=0;fillColor=#0050ef;strokeColor=#001DBC;endArrow=none;endFill=0;movable=1;resizable=1;rotatable=1;deletable=1;editable=1;locked=0;connectable=1;jumpStyle=none;" parent="1" source="fTM0DNvJYfySXZwp9rKw-174" target="gBf5a1rEPs-FKC83FTHr-3" edge="1">
          <mxGeometry relative="1" as="geometry">
            <Array as="points">
              <mxPoint x="782" y="550" />
            </Array>
            <mxPoint x="702" y="550" as="sourcePoint" />
            <mxPoint x="810" y="295" as="targetPoint" />
          </mxGeometry>
        </mxCell>
        <mxCell id="gBf5a1rEPs-FKC83FTHr-3" value="" style="shape=waypoint;sketch=0;fillStyle=solid;size=6;pointerEvents=1;points=[];fillColor=#0050ef;resizable=1;rotatable=1;perimeter=centerPerimeter;snapToPoint=1;fontColor=#ffffff;strokeColor=#001DBC;movable=1;deletable=1;editable=1;locked=0;connectable=1;" parent="1" vertex="1">
          <mxGeometry x="715" y="540" width="20" height="20" as="geometry" />
        </mxCell>
        <mxCell id="gBf5a1rEPs-FKC83FTHr-7" value="" style="edgeStyle=orthogonalEdgeStyle;rounded=0;orthogonalLoop=1;jettySize=auto;html=1;entryDx=0;entryDy=0;endArrow=none;endFill=0;movable=1;resizable=1;rotatable=1;deletable=1;editable=1;locked=0;connectable=1;jumpStyle=none;" parent="1" source="fTM0DNvJYfySXZwp9rKw-107" target="gBf5a1rEPs-FKC83FTHr-6" edge="1">
          <mxGeometry relative="1" as="geometry">
            <mxPoint x="502" y="445" as="targetPoint" />
            <Array as="points" />
            <mxPoint x="492" y="326" as="sourcePoint" />
          </mxGeometry>
        </mxCell>
        <mxCell id="gBf5a1rEPs-FKC83FTHr-8" style="edgeStyle=orthogonalEdgeStyle;rounded=0;orthogonalLoop=1;jettySize=auto;html=1;entryX=0;entryY=0.5;entryDx=0;entryDy=0;endArrow=none;endFill=0;movable=1;resizable=1;rotatable=1;deletable=1;editable=1;locked=0;connectable=1;jumpStyle=none;" parent="1" source="gBf5a1rEPs-FKC83FTHr-6" target="fTM0DNvJYfySXZwp9rKw-180" edge="1">
          <mxGeometry relative="1" as="geometry">
            <mxPoint x="494" y="537" as="targetPoint" />
            <Array as="points">
              <mxPoint x="492" y="595" />
            </Array>
          </mxGeometry>
        </mxCell>
        <mxCell id="gBf5a1rEPs-FKC83FTHr-6" value="" style="shape=waypoint;sketch=0;fillStyle=solid;size=6;pointerEvents=1;points=[];fillColor=none;resizable=1;rotatable=1;perimeter=centerPerimeter;snapToPoint=1;movable=1;deletable=1;editable=1;locked=0;connectable=1;" parent="1" vertex="1">
          <mxGeometry x="482" y="435" width="20" height="20" as="geometry" />
        </mxCell>
        <mxCell id="gBf5a1rEPs-FKC83FTHr-10" value="" style="edgeStyle=orthogonalEdgeStyle;rounded=0;orthogonalLoop=1;jettySize=auto;html=1;endArrow=none;endFill=0;entryDx=0;entryDy=0;movable=1;resizable=1;rotatable=1;deletable=1;editable=1;locked=0;connectable=1;jumpStyle=none;" parent="1" source="fTM0DNvJYfySXZwp9rKw-108" target="gBf5a1rEPs-FKC83FTHr-9" edge="1">
          <mxGeometry relative="1" as="geometry">
            <mxPoint x="502" y="455" as="targetPoint" />
            <Array as="points" />
            <mxPoint x="482" y="336" as="sourcePoint" />
          </mxGeometry>
        </mxCell>
        <mxCell id="gBf5a1rEPs-FKC83FTHr-11" style="edgeStyle=orthogonalEdgeStyle;rounded=0;orthogonalLoop=1;jettySize=auto;html=1;entryX=0;entryY=0.5;entryDx=0;entryDy=0;endArrow=none;endFill=0;movable=1;resizable=1;rotatable=1;deletable=1;editable=1;locked=0;connectable=1;jumpStyle=none;" parent="1" source="gBf5a1rEPs-FKC83FTHr-9" target="fTM0DNvJYfySXZwp9rKw-181" edge="1">
          <mxGeometry relative="1" as="geometry">
            <mxPoint x="481" y="558" as="targetPoint" />
            <Array as="points">
              <mxPoint x="482" y="605" />
            </Array>
          </mxGeometry>
        </mxCell>
        <mxCell id="gBf5a1rEPs-FKC83FTHr-9" value="" style="shape=waypoint;sketch=0;fillStyle=solid;size=6;pointerEvents=1;points=[];fillColor=none;resizable=1;rotatable=1;perimeter=centerPerimeter;snapToPoint=1;movable=1;deletable=1;editable=1;locked=0;connectable=1;" parent="1" vertex="1">
          <mxGeometry x="472" y="445" width="20" height="20" as="geometry" />
        </mxCell>
        <mxCell id="gBf5a1rEPs-FKC83FTHr-12" value="r_m_axi_wlast" style="text;whiteSpace=wrap;fontSize=7;verticalAlign=middle;movable=1;resizable=1;rotatable=1;deletable=1;editable=1;locked=0;connectable=1;" parent="1" vertex="1">
          <mxGeometry x="702" y="540" width="97" height="10" as="geometry" />
        </mxCell>
        <mxCell id="gBf5a1rEPs-FKC83FTHr-15" value="r_m_axi_awaddr" style="text;whiteSpace=wrap;fontSize=7;verticalAlign=middle;movable=1;resizable=1;rotatable=1;deletable=1;editable=1;locked=0;connectable=1;" parent="1" vertex="1">
          <mxGeometry x="622" y="456" width="109" height="10" as="geometry" />
        </mxCell>
        <mxCell id="gBf5a1rEPs-FKC83FTHr-16" value="r_write_start" style="text;whiteSpace=wrap;fontSize=7;verticalAlign=middle;movable=1;resizable=1;rotatable=1;deletable=1;editable=1;locked=0;connectable=1;" parent="1" vertex="1">
          <mxGeometry x="622" y="465" width="86" height="11" as="geometry" />
        </mxCell>
        <mxCell id="CwUCgc6lz3ZOCif1AqF4-11" value="1&#39;b1" style="text;html=1;align=center;verticalAlign=middle;whiteSpace=wrap;rounded=0;fontSize=8;movable=1;resizable=1;rotatable=1;deletable=1;editable=1;locked=0;connectable=1;container=0;labelBackgroundColor=none;fillColor=none;strokeColor=none;" vertex="1" parent="1">
          <mxGeometry x="393" y="220" width="25" height="12" as="geometry" />
        </mxCell>
        <mxCell id="CwUCgc6lz3ZOCif1AqF4-19" value="" style="endArrow=none;html=1;rounded=0;exitX=1;exitY=0.5;exitDx=0;exitDy=0;entryX=0;entryY=0.5;entryDx=0;entryDy=0;" edge="1" parent="1">
          <mxGeometry width="50" height="50" relative="1" as="geometry">
            <mxPoint x="382" y="227" as="sourcePoint" />
            <mxPoint x="393" y="227" as="targetPoint" />
          </mxGeometry>
        </mxCell>
      </root>
    </mxGraphModel>
  </diagram>
</mxfile>
